%TF.GenerationSoftware,KiCad,Pcbnew,8.0.3*%
%TF.CreationDate,2025-06-30T13:47:58+07:00*%
%TF.ProjectId,linear supply,6c696e65-6172-4207-9375-70706c792e6b,rev?*%
%TF.SameCoordinates,Original*%
%TF.FileFunction,Copper,L1,Top*%
%TF.FilePolarity,Positive*%
%FSLAX46Y46*%
G04 Gerber Fmt 4.6, Leading zero omitted, Abs format (unit mm)*
G04 Created by KiCad (PCBNEW 8.0.3) date 2025-06-30 13:47:58*
%MOMM*%
%LPD*%
G01*
G04 APERTURE LIST*
%TA.AperFunction,ComponentPad*%
%ADD10R,7.000000X7.000000*%
%TD*%
%TA.AperFunction,ComponentPad*%
%ADD11C,1.600000*%
%TD*%
%TA.AperFunction,ComponentPad*%
%ADD12R,1.905000X2.000000*%
%TD*%
%TA.AperFunction,ComponentPad*%
%ADD13O,1.905000X2.000000*%
%TD*%
%TA.AperFunction,ComponentPad*%
%ADD14R,2.400000X2.400000*%
%TD*%
%TA.AperFunction,ComponentPad*%
%ADD15C,2.400000*%
%TD*%
%TA.AperFunction,ComponentPad*%
%ADD16O,1.600000X1.600000*%
%TD*%
%TA.AperFunction,ComponentPad*%
%ADD17R,1.700000X1.700000*%
%TD*%
%TA.AperFunction,ComponentPad*%
%ADD18O,1.700000X1.700000*%
%TD*%
%TA.AperFunction,ViaPad*%
%ADD19C,0.600000*%
%TD*%
%TA.AperFunction,Conductor*%
%ADD20C,2.000000*%
%TD*%
G04 APERTURE END LIST*
D10*
%TO.P,,1*%
%TO.N,DC+*%
X179593890Y-126676110D03*
%TD*%
D11*
%TO.P,C2,1*%
%TO.N,out+*%
X116093890Y-98776110D03*
%TO.P,C2,2*%
%TO.N,DC-*%
X116093890Y-103776110D03*
%TD*%
D10*
%TO.P,input -,1*%
%TO.N,DC-*%
X179593890Y-82226110D03*
%TD*%
%TO.P,,1*%
%TO.N,out+*%
X100853890Y-126676110D03*
%TD*%
D11*
%TO.P,C4,1*%
%TO.N,DC+*%
X149113890Y-89886110D03*
%TO.P,C4,2*%
%TO.N,DC-*%
X149113890Y-94886110D03*
%TD*%
D12*
%TO.P,U1,1,ADJ*%
%TO.N,in pot*%
X137683890Y-80631110D03*
D13*
%TO.P,U1,2,VO*%
%TO.N,out+*%
X140223890Y-80631110D03*
%TO.P,U1,3,VI*%
%TO.N,DC+*%
X142763890Y-80631110D03*
%TD*%
D14*
%TO.P,C3,1*%
%TO.N,DC+*%
X165623890Y-118723890D03*
D15*
%TO.P,C3,2*%
%TO.N,DC-*%
X165623890Y-111223890D03*
%TD*%
D10*
%TO.P,,1*%
%TO.N,DC-*%
X100853890Y-82226110D03*
%TD*%
D11*
%TO.P,R1,1*%
%TO.N,out+*%
X140223890Y-93656110D03*
D16*
%TO.P,R1,2*%
%TO.N,in pot*%
X127523890Y-93656110D03*
%TD*%
D17*
%TO.P,Pot,1*%
%TO.N,in pot*%
X119903890Y-115246110D03*
D18*
%TO.P,Pot,2*%
%TO.N,DC-*%
X122443890Y-115246110D03*
%TD*%
D14*
%TO.P,C5,1*%
%TO.N,out+*%
X116093890Y-84846110D03*
D15*
%TO.P,C5,2*%
%TO.N,DC-*%
X116093890Y-89846110D03*
%TD*%
D14*
%TO.P,C1,1*%
%TO.N,DC+*%
X140223890Y-118723890D03*
D15*
%TO.P,C1,2*%
%TO.N,DC-*%
X140223890Y-111223890D03*
%TD*%
D14*
%TO.P,C6,1*%
%TO.N,DC+*%
X165623890Y-90178330D03*
D15*
%TO.P,C6,2*%
%TO.N,DC-*%
X165623890Y-97678330D03*
%TD*%
D19*
%TO.N,DC-*%
X179500000Y-110500000D03*
X107000000Y-118500000D03*
X169000000Y-81000000D03*
X105000000Y-89500000D03*
X129000000Y-118500000D03*
X167000000Y-83000000D03*
X179500000Y-96000000D03*
X140500000Y-101000000D03*
X113000000Y-118500000D03*
X144000000Y-101000000D03*
X105000000Y-95000000D03*
X105000000Y-101500000D03*
X113000000Y-111500000D03*
X167000000Y-81000000D03*
X169000000Y-83000000D03*
X136000000Y-101000000D03*
X179500000Y-121000000D03*
%TD*%
D20*
%TO.N,DC+*%
X165331670Y-89886110D02*
X165623890Y-90178330D01*
X136413890Y-126676110D02*
X179593890Y-126676110D01*
X170703890Y-116516110D02*
X168496110Y-118723890D01*
X168496110Y-90178330D02*
X170703890Y-92386110D01*
X135143890Y-120326110D02*
X135143890Y-125406110D01*
X165623890Y-118723890D02*
X140223890Y-118723890D01*
X170703890Y-92386110D02*
X170703890Y-116516110D01*
X165623890Y-90178330D02*
X168496110Y-90178330D01*
X142763890Y-83536110D02*
X149113890Y-89886110D01*
X149113890Y-89886110D02*
X165331670Y-89886110D01*
X136746110Y-118723890D02*
X135143890Y-120326110D01*
X140223890Y-118723890D02*
X136746110Y-118723890D01*
X135143890Y-125406110D02*
X136413890Y-126676110D01*
X168496110Y-118723890D02*
X165623890Y-118723890D01*
X142763890Y-80631110D02*
X142763890Y-83536110D01*
%TO.N,out+*%
X137603890Y-84846110D02*
X137683890Y-84766110D01*
X140223890Y-87306110D02*
X140223890Y-93656110D01*
X111013890Y-86036110D02*
X112203890Y-84846110D01*
X116093890Y-84846110D02*
X137603890Y-84846110D01*
X137683890Y-84766110D02*
X140223890Y-87306110D01*
X112323890Y-98776110D02*
X111013890Y-97466110D01*
X112203890Y-84846110D02*
X116093890Y-84846110D01*
X140223890Y-80631110D02*
X140223890Y-87306110D01*
X116093890Y-98776110D02*
X112323890Y-98776110D01*
X111013890Y-97466110D02*
X111013890Y-86036110D01*
%TO.N,DC-*%
X119943890Y-103776110D02*
X122443890Y-101276110D01*
X140223890Y-111223890D02*
X132776110Y-103776110D01*
X116093890Y-103776110D02*
X122443890Y-110126110D01*
X121173890Y-89846110D02*
X116093890Y-89846110D01*
X165623890Y-97678330D02*
X151906110Y-97678330D01*
X122443890Y-101276110D02*
X122443890Y-91116110D01*
X173773890Y-82226110D02*
X173500000Y-82500000D01*
X122443890Y-91116110D02*
X121173890Y-89846110D01*
X100853890Y-82226110D02*
X106273890Y-82226110D01*
X116093890Y-103776110D02*
X119943890Y-103776110D01*
X132776110Y-103776110D02*
X116093890Y-103776110D01*
X140223890Y-111223890D02*
X165623890Y-111223890D01*
X179593890Y-87406110D02*
X179500000Y-87500000D01*
X100853890Y-86853890D02*
X101000000Y-87000000D01*
X179593890Y-82226110D02*
X179593890Y-87406110D01*
X122443890Y-110126110D02*
X122443890Y-115246110D01*
X151906110Y-97678330D02*
X149113890Y-94886110D01*
X179593890Y-82226110D02*
X173773890Y-82226110D01*
X100853890Y-82226110D02*
X100853890Y-86853890D01*
X165623890Y-97678330D02*
X165623890Y-111223890D01*
X106273890Y-82226110D02*
X106500000Y-82000000D01*
%TD*%
%TA.AperFunction,Conductor*%
%TO.N,DC-*%
G36*
X136183543Y-79391295D02*
G01*
X136229298Y-79444099D01*
X136239242Y-79513257D01*
X136237329Y-79523344D01*
X136230891Y-79583226D01*
X136230890Y-79583245D01*
X136230890Y-81678980D01*
X136230891Y-81678986D01*
X136237298Y-81738593D01*
X136287592Y-81873438D01*
X136287596Y-81873445D01*
X136373842Y-81988654D01*
X136373845Y-81988657D01*
X136489054Y-82074903D01*
X136489061Y-82074907D01*
X136623907Y-82125201D01*
X136623906Y-82125201D01*
X136630834Y-82125945D01*
X136683517Y-82131610D01*
X138599390Y-82131609D01*
X138666429Y-82151294D01*
X138712184Y-82204097D01*
X138723390Y-82255609D01*
X138723390Y-83423266D01*
X138703705Y-83490305D01*
X138650901Y-83536060D01*
X138581743Y-83546004D01*
X138526505Y-83523584D01*
X138470327Y-83482769D01*
X138470326Y-83482768D01*
X138470324Y-83482767D01*
X138404605Y-83449281D01*
X138259886Y-83375543D01*
X138035258Y-83302556D01*
X137801987Y-83265610D01*
X137801982Y-83265610D01*
X137565798Y-83265610D01*
X137565793Y-83265610D01*
X137332521Y-83302556D01*
X137233518Y-83334725D01*
X137218696Y-83339541D01*
X137180379Y-83345610D01*
X117756210Y-83345610D01*
X117689171Y-83325925D01*
X117656942Y-83295919D01*
X117651438Y-83288567D01*
X117651436Y-83288564D01*
X117651432Y-83288561D01*
X117536225Y-83202316D01*
X117536218Y-83202312D01*
X117401372Y-83152018D01*
X117401373Y-83152018D01*
X117341773Y-83145611D01*
X117341771Y-83145610D01*
X117341763Y-83145610D01*
X117341754Y-83145610D01*
X114846019Y-83145610D01*
X114846013Y-83145611D01*
X114786406Y-83152018D01*
X114651561Y-83202312D01*
X114651554Y-83202316D01*
X114536347Y-83288561D01*
X114536341Y-83288567D01*
X114530838Y-83295919D01*
X114474905Y-83337791D01*
X114431570Y-83345610D01*
X112085793Y-83345610D01*
X111852524Y-83382556D01*
X111627895Y-83455543D01*
X111417455Y-83562767D01*
X111226378Y-83701594D01*
X109869374Y-85058598D01*
X109730547Y-85249675D01*
X109623323Y-85460113D01*
X109550336Y-85684741D01*
X109513390Y-85918012D01*
X109513390Y-97584207D01*
X109550336Y-97817478D01*
X109623323Y-98042106D01*
X109722852Y-98237441D01*
X109730547Y-98252544D01*
X109855656Y-98424741D01*
X109869374Y-98443621D01*
X109869375Y-98443622D01*
X111346381Y-99920629D01*
X111346386Y-99920633D01*
X111513045Y-100041716D01*
X111537457Y-100059453D01*
X111671549Y-100127776D01*
X111747893Y-100166676D01*
X111747895Y-100166676D01*
X111747898Y-100166678D01*
X111868302Y-100205799D01*
X111972521Y-100239663D01*
X112205793Y-100276610D01*
X112205798Y-100276610D01*
X116211987Y-100276610D01*
X116445258Y-100239663D01*
X116669882Y-100166678D01*
X116880323Y-100059453D01*
X117071400Y-99920627D01*
X117238407Y-99753620D01*
X117377233Y-99562543D01*
X117484458Y-99352102D01*
X117557443Y-99127478D01*
X117594390Y-98894207D01*
X117594390Y-98658012D01*
X117557443Y-98424741D01*
X117484456Y-98200113D01*
X117377232Y-97989676D01*
X117335625Y-97932409D01*
X117238407Y-97798600D01*
X117118132Y-97678325D01*
X163919123Y-97678325D01*
X163919123Y-97678334D01*
X163938163Y-97932409D01*
X163994858Y-98180807D01*
X163994863Y-98180824D01*
X164087948Y-98418001D01*
X164087947Y-98418001D01*
X164215344Y-98638657D01*
X164215351Y-98638668D01*
X164257342Y-98691321D01*
X164257343Y-98691322D01*
X165059277Y-97889388D01*
X165064779Y-97909921D01*
X165143771Y-98046738D01*
X165255482Y-98158449D01*
X165392299Y-98237441D01*
X165412830Y-98242942D01*
X164610703Y-99045068D01*
X164771506Y-99154701D01*
X164771514Y-99154706D01*
X165001066Y-99265251D01*
X165001064Y-99265251D01*
X165244542Y-99340354D01*
X165244548Y-99340356D01*
X165496485Y-99378329D01*
X165496494Y-99378330D01*
X165751286Y-99378330D01*
X165751294Y-99378329D01*
X166003231Y-99340356D01*
X166003237Y-99340354D01*
X166246714Y-99265251D01*
X166476266Y-99154706D01*
X166476267Y-99154705D01*
X166637075Y-99045068D01*
X165834950Y-98242942D01*
X165855481Y-98237441D01*
X165992298Y-98158449D01*
X166104009Y-98046738D01*
X166183001Y-97909921D01*
X166188502Y-97889389D01*
X166990434Y-98691322D01*
X166990436Y-98691321D01*
X167032434Y-98638660D01*
X167159831Y-98418001D01*
X167252916Y-98180824D01*
X167252921Y-98180807D01*
X167309616Y-97932409D01*
X167328657Y-97678334D01*
X167328657Y-97678325D01*
X167309616Y-97424250D01*
X167252921Y-97175852D01*
X167252916Y-97175835D01*
X167159831Y-96938658D01*
X167159832Y-96938658D01*
X167032435Y-96718002D01*
X166990435Y-96665336D01*
X166188502Y-97467269D01*
X166183001Y-97446739D01*
X166104009Y-97309922D01*
X165992298Y-97198211D01*
X165855481Y-97119219D01*
X165834949Y-97113717D01*
X166637075Y-96311590D01*
X166476274Y-96201958D01*
X166476266Y-96201953D01*
X166246713Y-96091408D01*
X166246715Y-96091408D01*
X166003237Y-96016305D01*
X166003231Y-96016303D01*
X165751294Y-95978330D01*
X165496485Y-95978330D01*
X165244548Y-96016303D01*
X165244542Y-96016305D01*
X165001065Y-96091408D01*
X164771512Y-96201955D01*
X164771499Y-96201962D01*
X164610703Y-96311589D01*
X165412831Y-97113717D01*
X165392299Y-97119219D01*
X165255482Y-97198211D01*
X165143771Y-97309922D01*
X165064779Y-97446739D01*
X165059277Y-97467270D01*
X164257342Y-96665336D01*
X164215347Y-96717997D01*
X164087948Y-96938658D01*
X163994863Y-97175835D01*
X163994858Y-97175852D01*
X163938163Y-97424250D01*
X163919123Y-97678325D01*
X117118132Y-97678325D01*
X117071400Y-97631593D01*
X116880323Y-97492767D01*
X116669886Y-97385543D01*
X116445258Y-97312556D01*
X116211987Y-97275610D01*
X116211982Y-97275610D01*
X112996780Y-97275610D01*
X112929741Y-97255925D01*
X112909099Y-97239291D01*
X112550709Y-96880901D01*
X112517224Y-96819578D01*
X112514390Y-96793220D01*
X112514390Y-93656108D01*
X126218422Y-93656108D01*
X126218422Y-93656111D01*
X126238254Y-93882796D01*
X126238256Y-93882807D01*
X126297148Y-94102598D01*
X126297151Y-94102607D01*
X126393321Y-94308842D01*
X126393322Y-94308844D01*
X126523844Y-94495251D01*
X126684748Y-94656155D01*
X126731583Y-94688949D01*
X126871156Y-94786678D01*
X127077394Y-94882849D01*
X127077399Y-94882850D01*
X127077401Y-94882851D01*
X127130305Y-94897026D01*
X127297198Y-94941745D01*
X127459120Y-94955911D01*
X127523888Y-94961578D01*
X127523890Y-94961578D01*
X127523892Y-94961578D01*
X127580563Y-94956619D01*
X127750582Y-94941745D01*
X127970386Y-94882849D01*
X128176624Y-94786678D01*
X128363029Y-94656157D01*
X128523937Y-94495249D01*
X128654458Y-94308844D01*
X128750629Y-94102606D01*
X128809525Y-93882802D01*
X128829358Y-93656110D01*
X128809525Y-93429418D01*
X128750629Y-93209614D01*
X128654458Y-93003376D01*
X128523937Y-92816971D01*
X128523935Y-92816968D01*
X128363031Y-92656064D01*
X128176624Y-92525542D01*
X128176622Y-92525541D01*
X127970387Y-92429371D01*
X127970378Y-92429368D01*
X127750587Y-92370476D01*
X127750583Y-92370475D01*
X127750582Y-92370475D01*
X127750581Y-92370474D01*
X127750576Y-92370474D01*
X127523892Y-92350642D01*
X127523888Y-92350642D01*
X127297203Y-92370474D01*
X127297192Y-92370476D01*
X127077401Y-92429368D01*
X127077392Y-92429371D01*
X126871157Y-92525541D01*
X126871155Y-92525542D01*
X126684748Y-92656064D01*
X126523844Y-92816968D01*
X126393322Y-93003375D01*
X126393321Y-93003377D01*
X126297151Y-93209612D01*
X126297148Y-93209621D01*
X126238256Y-93429412D01*
X126238254Y-93429423D01*
X126218422Y-93656108D01*
X112514390Y-93656108D01*
X112514390Y-89846105D01*
X114389123Y-89846105D01*
X114389123Y-89846114D01*
X114408163Y-90100189D01*
X114464858Y-90348587D01*
X114464863Y-90348604D01*
X114557948Y-90585781D01*
X114557947Y-90585781D01*
X114685344Y-90806437D01*
X114685351Y-90806448D01*
X114727342Y-90859101D01*
X114727343Y-90859102D01*
X115529277Y-90057168D01*
X115534779Y-90077701D01*
X115613771Y-90214518D01*
X115725482Y-90326229D01*
X115862299Y-90405221D01*
X115882830Y-90410722D01*
X115080703Y-91212848D01*
X115241506Y-91322481D01*
X115241514Y-91322486D01*
X115471066Y-91433031D01*
X115471064Y-91433031D01*
X115714542Y-91508134D01*
X115714548Y-91508136D01*
X115966485Y-91546109D01*
X115966494Y-91546110D01*
X116221286Y-91546110D01*
X116221294Y-91546109D01*
X116473231Y-91508136D01*
X116473237Y-91508134D01*
X116716714Y-91433031D01*
X116946266Y-91322486D01*
X116946267Y-91322485D01*
X117107075Y-91212848D01*
X116304950Y-90410722D01*
X116325481Y-90405221D01*
X116462298Y-90326229D01*
X116574009Y-90214518D01*
X116653001Y-90077701D01*
X116658502Y-90057169D01*
X117460435Y-90859102D01*
X117460436Y-90859101D01*
X117502434Y-90806440D01*
X117629831Y-90585781D01*
X117722916Y-90348604D01*
X117722921Y-90348587D01*
X117779616Y-90100189D01*
X117798657Y-89846114D01*
X117798657Y-89846105D01*
X117779616Y-89592030D01*
X117722921Y-89343632D01*
X117722916Y-89343615D01*
X117629831Y-89106438D01*
X117629832Y-89106438D01*
X117502435Y-88885782D01*
X117460435Y-88833116D01*
X116658502Y-89635049D01*
X116653001Y-89614519D01*
X116574009Y-89477702D01*
X116462298Y-89365991D01*
X116325481Y-89286999D01*
X116304949Y-89281497D01*
X117107075Y-88479370D01*
X116946274Y-88369738D01*
X116946266Y-88369733D01*
X116716713Y-88259188D01*
X116716715Y-88259188D01*
X116473237Y-88184085D01*
X116473231Y-88184083D01*
X116221294Y-88146110D01*
X115966485Y-88146110D01*
X115714548Y-88184083D01*
X115714542Y-88184085D01*
X115471065Y-88259188D01*
X115241512Y-88369735D01*
X115241499Y-88369742D01*
X115080703Y-88479369D01*
X115882831Y-89281497D01*
X115862299Y-89286999D01*
X115725482Y-89365991D01*
X115613771Y-89477702D01*
X115534779Y-89614519D01*
X115529277Y-89635051D01*
X114727342Y-88833116D01*
X114685347Y-88885777D01*
X114557948Y-89106438D01*
X114464863Y-89343615D01*
X114464858Y-89343632D01*
X114408163Y-89592030D01*
X114389123Y-89846105D01*
X112514390Y-89846105D01*
X112514390Y-86708999D01*
X112534075Y-86641960D01*
X112550709Y-86621318D01*
X112789098Y-86382929D01*
X112850421Y-86349444D01*
X112876779Y-86346610D01*
X114431570Y-86346610D01*
X114498609Y-86366295D01*
X114530838Y-86396301D01*
X114536344Y-86403656D01*
X114536347Y-86403658D01*
X114651554Y-86489903D01*
X114651561Y-86489907D01*
X114786407Y-86540201D01*
X114786406Y-86540201D01*
X114793334Y-86540945D01*
X114846017Y-86546610D01*
X117341762Y-86546609D01*
X117401373Y-86540201D01*
X117536221Y-86489906D01*
X117651436Y-86403656D01*
X117656942Y-86396301D01*
X117712875Y-86354429D01*
X117756210Y-86346610D01*
X137091001Y-86346610D01*
X137158040Y-86366295D01*
X137178682Y-86382929D01*
X138687071Y-87891318D01*
X138720556Y-87952641D01*
X138723390Y-87978999D01*
X138723390Y-93774207D01*
X138760336Y-94007478D01*
X138833323Y-94232106D01*
X138939138Y-94439778D01*
X138940547Y-94442543D01*
X139079373Y-94633620D01*
X139246380Y-94800627D01*
X139437457Y-94939453D01*
X139480880Y-94961578D01*
X139647893Y-95046676D01*
X139647895Y-95046676D01*
X139647898Y-95046678D01*
X139768302Y-95085799D01*
X139872521Y-95119663D01*
X140105793Y-95156610D01*
X140105798Y-95156610D01*
X140341987Y-95156610D01*
X140575258Y-95119663D01*
X140596660Y-95112709D01*
X140799882Y-95046678D01*
X141010323Y-94939453D01*
X141083747Y-94886107D01*
X147808924Y-94886107D01*
X147808924Y-94886112D01*
X147828748Y-95112709D01*
X147828750Y-95112720D01*
X147887620Y-95332427D01*
X147887625Y-95332441D01*
X147983753Y-95538588D01*
X148034864Y-95611582D01*
X148713890Y-94932556D01*
X148713890Y-94938771D01*
X148741149Y-95040504D01*
X148793810Y-95131716D01*
X148868284Y-95206190D01*
X148959496Y-95258851D01*
X149061229Y-95286110D01*
X149067443Y-95286110D01*
X148388416Y-95965135D01*
X148461403Y-96016242D01*
X148461411Y-96016246D01*
X148667558Y-96112374D01*
X148667572Y-96112379D01*
X148887279Y-96171249D01*
X148887290Y-96171251D01*
X149113888Y-96191076D01*
X149113892Y-96191076D01*
X149340489Y-96171251D01*
X149340500Y-96171249D01*
X149560207Y-96112379D01*
X149560221Y-96112374D01*
X149766368Y-96016246D01*
X149839361Y-95965134D01*
X149160337Y-95286110D01*
X149166551Y-95286110D01*
X149268284Y-95258851D01*
X149359496Y-95206190D01*
X149433970Y-95131716D01*
X149486631Y-95040504D01*
X149513890Y-94938771D01*
X149513890Y-94932557D01*
X150192914Y-95611581D01*
X150244026Y-95538588D01*
X150340154Y-95332441D01*
X150340159Y-95332427D01*
X150399029Y-95112720D01*
X150399031Y-95112709D01*
X150418856Y-94886112D01*
X150418856Y-94886107D01*
X150399031Y-94659510D01*
X150399029Y-94659499D01*
X150340159Y-94439792D01*
X150340154Y-94439778D01*
X150244026Y-94233631D01*
X150244022Y-94233623D01*
X150192915Y-94160636D01*
X149513890Y-94839661D01*
X149513890Y-94833449D01*
X149486631Y-94731716D01*
X149433970Y-94640504D01*
X149359496Y-94566030D01*
X149268284Y-94513369D01*
X149166551Y-94486110D01*
X149160338Y-94486110D01*
X149839362Y-93807084D01*
X149766368Y-93755973D01*
X149560221Y-93659845D01*
X149560207Y-93659840D01*
X149340500Y-93600970D01*
X149340489Y-93600968D01*
X149113892Y-93581144D01*
X149113888Y-93581144D01*
X148887290Y-93600968D01*
X148887279Y-93600970D01*
X148667572Y-93659840D01*
X148667563Y-93659844D01*
X148461406Y-93755976D01*
X148461402Y-93755978D01*
X148388416Y-93807083D01*
X148388416Y-93807084D01*
X149067443Y-94486110D01*
X149061229Y-94486110D01*
X148959496Y-94513369D01*
X148868284Y-94566030D01*
X148793810Y-94640504D01*
X148741149Y-94731716D01*
X148713890Y-94833449D01*
X148713890Y-94839662D01*
X148034864Y-94160636D01*
X148034863Y-94160636D01*
X147983758Y-94233622D01*
X147983756Y-94233626D01*
X147887624Y-94439783D01*
X147887620Y-94439792D01*
X147828750Y-94659499D01*
X147828748Y-94659510D01*
X147808924Y-94886107D01*
X141083747Y-94886107D01*
X141201400Y-94800627D01*
X141368407Y-94633620D01*
X141507233Y-94442543D01*
X141613679Y-94233631D01*
X141614456Y-94232106D01*
X141614456Y-94232105D01*
X141614458Y-94232102D01*
X141687443Y-94007478D01*
X141707191Y-93882796D01*
X141724390Y-93774207D01*
X141724390Y-84917999D01*
X141744075Y-84850960D01*
X141796879Y-84805205D01*
X141866037Y-84795261D01*
X141929593Y-84824286D01*
X141936071Y-84830318D01*
X148136380Y-91030627D01*
X148327456Y-91169453D01*
X148537898Y-91276678D01*
X148762521Y-91349663D01*
X148849999Y-91363518D01*
X148995793Y-91386610D01*
X148995798Y-91386610D01*
X163808243Y-91386610D01*
X163875282Y-91406295D01*
X163921037Y-91459099D01*
X163928919Y-91482090D01*
X163929799Y-91485813D01*
X163980092Y-91620658D01*
X163980096Y-91620665D01*
X164066342Y-91735874D01*
X164066345Y-91735877D01*
X164181554Y-91822123D01*
X164181561Y-91822127D01*
X164316407Y-91872421D01*
X164316406Y-91872421D01*
X164323334Y-91873165D01*
X164376017Y-91878830D01*
X166871762Y-91878829D01*
X166931373Y-91872421D01*
X167066221Y-91822126D01*
X167181436Y-91735876D01*
X167186942Y-91728521D01*
X167242875Y-91686649D01*
X167286210Y-91678830D01*
X167823221Y-91678830D01*
X167890260Y-91698515D01*
X167910902Y-91715149D01*
X169167071Y-92971318D01*
X169200556Y-93032641D01*
X169203390Y-93058999D01*
X169203390Y-115843221D01*
X169183705Y-115910260D01*
X169167071Y-115930902D01*
X167910902Y-117187071D01*
X167849579Y-117220556D01*
X167823221Y-117223390D01*
X167286210Y-117223390D01*
X167219171Y-117203705D01*
X167186942Y-117173699D01*
X167181438Y-117166347D01*
X167181436Y-117166344D01*
X167181432Y-117166341D01*
X167066225Y-117080096D01*
X167066218Y-117080092D01*
X166931372Y-117029798D01*
X166931373Y-117029798D01*
X166871773Y-117023391D01*
X166871771Y-117023390D01*
X166871763Y-117023390D01*
X166871754Y-117023390D01*
X164376019Y-117023390D01*
X164376013Y-117023391D01*
X164316406Y-117029798D01*
X164181561Y-117080092D01*
X164181554Y-117080096D01*
X164066347Y-117166341D01*
X164066341Y-117166347D01*
X164060838Y-117173699D01*
X164004905Y-117215571D01*
X163961570Y-117223390D01*
X141886210Y-117223390D01*
X141819171Y-117203705D01*
X141786942Y-117173699D01*
X141781438Y-117166347D01*
X141781436Y-117166344D01*
X141781432Y-117166341D01*
X141666225Y-117080096D01*
X141666218Y-117080092D01*
X141531372Y-117029798D01*
X141531373Y-117029798D01*
X141471773Y-117023391D01*
X141471771Y-117023390D01*
X141471763Y-117023390D01*
X141471754Y-117023390D01*
X138976019Y-117023390D01*
X138976013Y-117023391D01*
X138916406Y-117029798D01*
X138781561Y-117080092D01*
X138781554Y-117080096D01*
X138666347Y-117166341D01*
X138666341Y-117166347D01*
X138660838Y-117173699D01*
X138604905Y-117215571D01*
X138561570Y-117223390D01*
X136628013Y-117223390D01*
X136394741Y-117260336D01*
X136170113Y-117333323D01*
X135959675Y-117440547D01*
X135768598Y-117579374D01*
X133999374Y-119348598D01*
X133860547Y-119539675D01*
X133778145Y-119701400D01*
X133753323Y-119750113D01*
X133680336Y-119974741D01*
X133643390Y-120208012D01*
X133643390Y-125524207D01*
X133680336Y-125757478D01*
X133753323Y-125982106D01*
X133860547Y-126192544D01*
X133999373Y-126383620D01*
X135436380Y-127820627D01*
X135627456Y-127959453D01*
X135703033Y-127997961D01*
X135837893Y-128066676D01*
X135837895Y-128066676D01*
X135837898Y-128066678D01*
X135958302Y-128105799D01*
X136062521Y-128139663D01*
X136295793Y-128176610D01*
X136295798Y-128176610D01*
X136531982Y-128176610D01*
X175469391Y-128176610D01*
X175536430Y-128196295D01*
X175582185Y-128249099D01*
X175593391Y-128300610D01*
X175593391Y-129046610D01*
X175573706Y-129113649D01*
X175520902Y-129159404D01*
X175469391Y-129170610D01*
X104978390Y-129170610D01*
X104911351Y-129150925D01*
X104865596Y-129098121D01*
X104854390Y-129046610D01*
X104854389Y-123128239D01*
X104854388Y-123128233D01*
X104854387Y-123128226D01*
X104847981Y-123068627D01*
X104797686Y-122933779D01*
X104797685Y-122933778D01*
X104797683Y-122933774D01*
X104711437Y-122818565D01*
X104711434Y-122818562D01*
X104596225Y-122732316D01*
X104596218Y-122732312D01*
X104461372Y-122682018D01*
X104461373Y-122682018D01*
X104401773Y-122675611D01*
X104401771Y-122675610D01*
X104401763Y-122675610D01*
X104401755Y-122675610D01*
X97668390Y-122675610D01*
X97601351Y-122655925D01*
X97555596Y-122603121D01*
X97544390Y-122551610D01*
X97544390Y-114348245D01*
X118553390Y-114348245D01*
X118553390Y-116143980D01*
X118553391Y-116143986D01*
X118559798Y-116203593D01*
X118610092Y-116338438D01*
X118610096Y-116338445D01*
X118696342Y-116453654D01*
X118696345Y-116453657D01*
X118811554Y-116539903D01*
X118811561Y-116539907D01*
X118946407Y-116590201D01*
X118946406Y-116590201D01*
X118953334Y-116590945D01*
X119006017Y-116596610D01*
X120801762Y-116596609D01*
X120861373Y-116590201D01*
X120996221Y-116539906D01*
X121111436Y-116453656D01*
X121197686Y-116338441D01*
X121246892Y-116206511D01*
X121288762Y-116150578D01*
X121354227Y-116126160D01*
X121422500Y-116141011D01*
X121450755Y-116162163D01*
X121572807Y-116284215D01*
X121766311Y-116419710D01*
X121980397Y-116519539D01*
X121980406Y-116519543D01*
X122193890Y-116576744D01*
X122193890Y-115679122D01*
X122250897Y-115712035D01*
X122378064Y-115746110D01*
X122509716Y-115746110D01*
X122636883Y-115712035D01*
X122693890Y-115679122D01*
X122693890Y-116576743D01*
X122907373Y-116519543D01*
X122907382Y-116519539D01*
X123121468Y-116419710D01*
X123314972Y-116284215D01*
X123481995Y-116117192D01*
X123617490Y-115923688D01*
X123717319Y-115709602D01*
X123717322Y-115709596D01*
X123774526Y-115496110D01*
X122876902Y-115496110D01*
X122909815Y-115439103D01*
X122943890Y-115311936D01*
X122943890Y-115180284D01*
X122909815Y-115053117D01*
X122876902Y-114996110D01*
X123774526Y-114996110D01*
X123774525Y-114996109D01*
X123717322Y-114782623D01*
X123717319Y-114782617D01*
X123617490Y-114568532D01*
X123617489Y-114568530D01*
X123482003Y-114375036D01*
X123481998Y-114375030D01*
X123314972Y-114208004D01*
X123121468Y-114072509D01*
X122907382Y-113972680D01*
X122907376Y-113972677D01*
X122693890Y-113915474D01*
X122693890Y-114813098D01*
X122636883Y-114780185D01*
X122509716Y-114746110D01*
X122378064Y-114746110D01*
X122250897Y-114780185D01*
X122193890Y-114813098D01*
X122193890Y-113915474D01*
X122193889Y-113915474D01*
X121980403Y-113972677D01*
X121980397Y-113972680D01*
X121766312Y-114072509D01*
X121766310Y-114072510D01*
X121572816Y-114207996D01*
X121450755Y-114330057D01*
X121389432Y-114363541D01*
X121319740Y-114358557D01*
X121263807Y-114316685D01*
X121246892Y-114285708D01*
X121197687Y-114153781D01*
X121197683Y-114153774D01*
X121111437Y-114038565D01*
X121111434Y-114038562D01*
X120996225Y-113952316D01*
X120996218Y-113952312D01*
X120861372Y-113902018D01*
X120861373Y-113902018D01*
X120801773Y-113895611D01*
X120801771Y-113895610D01*
X120801763Y-113895610D01*
X120801754Y-113895610D01*
X119006019Y-113895610D01*
X119006013Y-113895611D01*
X118946406Y-113902018D01*
X118811561Y-113952312D01*
X118811554Y-113952316D01*
X118696345Y-114038562D01*
X118696342Y-114038565D01*
X118610096Y-114153774D01*
X118610092Y-114153781D01*
X118559798Y-114288627D01*
X118553391Y-114348226D01*
X118553390Y-114348245D01*
X97544390Y-114348245D01*
X97544390Y-111223885D01*
X138519123Y-111223885D01*
X138519123Y-111223894D01*
X138538163Y-111477969D01*
X138594858Y-111726367D01*
X138594863Y-111726384D01*
X138687948Y-111963561D01*
X138687947Y-111963561D01*
X138815344Y-112184217D01*
X138815351Y-112184228D01*
X138857342Y-112236881D01*
X138857343Y-112236882D01*
X139659277Y-111434948D01*
X139664779Y-111455481D01*
X139743771Y-111592298D01*
X139855482Y-111704009D01*
X139992299Y-111783001D01*
X140012830Y-111788502D01*
X139210703Y-112590628D01*
X139371506Y-112700261D01*
X139371514Y-112700266D01*
X139601066Y-112810811D01*
X139601064Y-112810811D01*
X139844542Y-112885914D01*
X139844548Y-112885916D01*
X140096485Y-112923889D01*
X140096494Y-112923890D01*
X140351286Y-112923890D01*
X140351294Y-112923889D01*
X140603231Y-112885916D01*
X140603237Y-112885914D01*
X140846714Y-112810811D01*
X141076266Y-112700266D01*
X141076267Y-112700265D01*
X141237075Y-112590628D01*
X140434950Y-111788502D01*
X140455481Y-111783001D01*
X140592298Y-111704009D01*
X140704009Y-111592298D01*
X140783001Y-111455481D01*
X140788502Y-111434949D01*
X141590435Y-112236882D01*
X141590436Y-112236881D01*
X141632434Y-112184220D01*
X141759831Y-111963561D01*
X141852916Y-111726384D01*
X141852921Y-111726367D01*
X141909616Y-111477969D01*
X141928657Y-111223894D01*
X141928657Y-111223885D01*
X163919123Y-111223885D01*
X163919123Y-111223894D01*
X163938163Y-111477969D01*
X163994858Y-111726367D01*
X163994863Y-111726384D01*
X164087948Y-111963561D01*
X164087947Y-111963561D01*
X164215344Y-112184217D01*
X164215351Y-112184228D01*
X164257342Y-112236881D01*
X164257343Y-112236882D01*
X165059277Y-111434948D01*
X165064779Y-111455481D01*
X165143771Y-111592298D01*
X165255482Y-111704009D01*
X165392299Y-111783001D01*
X165412830Y-111788502D01*
X164610703Y-112590628D01*
X164771506Y-112700261D01*
X164771514Y-112700266D01*
X165001066Y-112810811D01*
X165001064Y-112810811D01*
X165244542Y-112885914D01*
X165244548Y-112885916D01*
X165496485Y-112923889D01*
X165496494Y-112923890D01*
X165751286Y-112923890D01*
X165751294Y-112923889D01*
X166003231Y-112885916D01*
X166003237Y-112885914D01*
X166246714Y-112810811D01*
X166476266Y-112700266D01*
X166476267Y-112700265D01*
X166637075Y-112590628D01*
X165834950Y-111788502D01*
X165855481Y-111783001D01*
X165992298Y-111704009D01*
X166104009Y-111592298D01*
X166183001Y-111455481D01*
X166188502Y-111434949D01*
X166990434Y-112236882D01*
X166990436Y-112236881D01*
X167032434Y-112184220D01*
X167159831Y-111963561D01*
X167252916Y-111726384D01*
X167252921Y-111726367D01*
X167309616Y-111477969D01*
X167328657Y-111223894D01*
X167328657Y-111223885D01*
X167309616Y-110969810D01*
X167252921Y-110721412D01*
X167252916Y-110721395D01*
X167159831Y-110484218D01*
X167159832Y-110484218D01*
X167032435Y-110263562D01*
X166990435Y-110210896D01*
X166188502Y-111012829D01*
X166183001Y-110992299D01*
X166104009Y-110855482D01*
X165992298Y-110743771D01*
X165855481Y-110664779D01*
X165834949Y-110659277D01*
X166637075Y-109857150D01*
X166476274Y-109747518D01*
X166476266Y-109747513D01*
X166246713Y-109636968D01*
X166246715Y-109636968D01*
X166003237Y-109561865D01*
X166003231Y-109561863D01*
X165751294Y-109523890D01*
X165496485Y-109523890D01*
X165244548Y-109561863D01*
X165244542Y-109561865D01*
X165001065Y-109636968D01*
X164771512Y-109747515D01*
X164771499Y-109747522D01*
X164610703Y-109857149D01*
X165412831Y-110659277D01*
X165392299Y-110664779D01*
X165255482Y-110743771D01*
X165143771Y-110855482D01*
X165064779Y-110992299D01*
X165059277Y-111012830D01*
X164257342Y-110210896D01*
X164215347Y-110263557D01*
X164087948Y-110484218D01*
X163994863Y-110721395D01*
X163994858Y-110721412D01*
X163938163Y-110969810D01*
X163919123Y-111223885D01*
X141928657Y-111223885D01*
X141909616Y-110969810D01*
X141852921Y-110721412D01*
X141852916Y-110721395D01*
X141759831Y-110484218D01*
X141759832Y-110484218D01*
X141632435Y-110263562D01*
X141590435Y-110210896D01*
X140788502Y-111012829D01*
X140783001Y-110992299D01*
X140704009Y-110855482D01*
X140592298Y-110743771D01*
X140455481Y-110664779D01*
X140434949Y-110659277D01*
X141237075Y-109857150D01*
X141076274Y-109747518D01*
X141076266Y-109747513D01*
X140846713Y-109636968D01*
X140846715Y-109636968D01*
X140603237Y-109561865D01*
X140603231Y-109561863D01*
X140351294Y-109523890D01*
X140096485Y-109523890D01*
X139844548Y-109561863D01*
X139844542Y-109561865D01*
X139601065Y-109636968D01*
X139371512Y-109747515D01*
X139371499Y-109747522D01*
X139210703Y-109857149D01*
X140012831Y-110659277D01*
X139992299Y-110664779D01*
X139855482Y-110743771D01*
X139743771Y-110855482D01*
X139664779Y-110992299D01*
X139659277Y-111012830D01*
X138857342Y-110210896D01*
X138815347Y-110263557D01*
X138687948Y-110484218D01*
X138594863Y-110721395D01*
X138594858Y-110721412D01*
X138538163Y-110969810D01*
X138519123Y-111223885D01*
X97544390Y-111223885D01*
X97544390Y-104464821D01*
X100053390Y-104464821D01*
X100053390Y-104707398D01*
X100085051Y-104947895D01*
X100147837Y-105182214D01*
X100200290Y-105308846D01*
X100240666Y-105406322D01*
X100361954Y-105616399D01*
X100361956Y-105616402D01*
X100361957Y-105616403D01*
X100509623Y-105808846D01*
X100509629Y-105808853D01*
X100681146Y-105980370D01*
X100681152Y-105980375D01*
X100873601Y-106128046D01*
X101083678Y-106249334D01*
X101307790Y-106342164D01*
X101542101Y-106404948D01*
X101722476Y-106428694D01*
X101782601Y-106436610D01*
X101782602Y-106436610D01*
X102025179Y-106436610D01*
X102073278Y-106430277D01*
X102265679Y-106404948D01*
X102499990Y-106342164D01*
X102724102Y-106249334D01*
X102934179Y-106128046D01*
X103126628Y-105980375D01*
X103298155Y-105808848D01*
X103445826Y-105616399D01*
X103567114Y-105406322D01*
X103659944Y-105182210D01*
X103722728Y-104947899D01*
X103754390Y-104707398D01*
X103754390Y-104464822D01*
X103722728Y-104224321D01*
X103659944Y-103990010D01*
X103571343Y-103776107D01*
X114788924Y-103776107D01*
X114788924Y-103776112D01*
X114808748Y-104002709D01*
X114808750Y-104002720D01*
X114867620Y-104222427D01*
X114867625Y-104222441D01*
X114963753Y-104428588D01*
X115014864Y-104501582D01*
X115693890Y-103822556D01*
X115693890Y-103828771D01*
X115721149Y-103930504D01*
X115773810Y-104021716D01*
X115848284Y-104096190D01*
X115939496Y-104148851D01*
X116041229Y-104176110D01*
X116047443Y-104176110D01*
X115368416Y-104855135D01*
X115441403Y-104906242D01*
X115441411Y-104906246D01*
X115647558Y-105002374D01*
X115647572Y-105002379D01*
X115867279Y-105061249D01*
X115867290Y-105061251D01*
X116093888Y-105081076D01*
X116093892Y-105081076D01*
X116320489Y-105061251D01*
X116320500Y-105061249D01*
X116540207Y-105002379D01*
X116540221Y-105002374D01*
X116746368Y-104906246D01*
X116819361Y-104855134D01*
X116140337Y-104176110D01*
X116146551Y-104176110D01*
X116248284Y-104148851D01*
X116339496Y-104096190D01*
X116413970Y-104021716D01*
X116466631Y-103930504D01*
X116493890Y-103828771D01*
X116493890Y-103822557D01*
X117172914Y-104501581D01*
X117224026Y-104428588D01*
X117320154Y-104222441D01*
X117320159Y-104222427D01*
X117379029Y-104002720D01*
X117379031Y-104002709D01*
X117382346Y-103964821D01*
X147553390Y-103964821D01*
X147553390Y-104207398D01*
X147585051Y-104447895D01*
X147647837Y-104682214D01*
X147740663Y-104906315D01*
X147740666Y-104906322D01*
X147861954Y-105116399D01*
X147861956Y-105116402D01*
X147861957Y-105116403D01*
X148009623Y-105308846D01*
X148009629Y-105308853D01*
X148181146Y-105480370D01*
X148181152Y-105480375D01*
X148373601Y-105628046D01*
X148583678Y-105749334D01*
X148807790Y-105842164D01*
X149042101Y-105904948D01*
X149222476Y-105928694D01*
X149282601Y-105936610D01*
X149282602Y-105936610D01*
X149525179Y-105936610D01*
X149573278Y-105930277D01*
X149765679Y-105904948D01*
X149999990Y-105842164D01*
X150224102Y-105749334D01*
X150434179Y-105628046D01*
X150626628Y-105480375D01*
X150798155Y-105308848D01*
X150945826Y-105116399D01*
X151067114Y-104906322D01*
X151159944Y-104682210D01*
X151222728Y-104447899D01*
X151254390Y-104207398D01*
X151254390Y-103964822D01*
X151222728Y-103724321D01*
X151159944Y-103490010D01*
X151067114Y-103265898D01*
X150945826Y-103055821D01*
X150798155Y-102863372D01*
X150798150Y-102863366D01*
X150626633Y-102691849D01*
X150626626Y-102691843D01*
X150434183Y-102544177D01*
X150434182Y-102544176D01*
X150434179Y-102544174D01*
X150224102Y-102422886D01*
X150224095Y-102422883D01*
X149999994Y-102330057D01*
X149765675Y-102267271D01*
X149525179Y-102235610D01*
X149525178Y-102235610D01*
X149282602Y-102235610D01*
X149282601Y-102235610D01*
X149042104Y-102267271D01*
X148807785Y-102330057D01*
X148583684Y-102422883D01*
X148583675Y-102422887D01*
X148373596Y-102544177D01*
X148181153Y-102691843D01*
X148181146Y-102691849D01*
X148009629Y-102863366D01*
X148009623Y-102863373D01*
X147861957Y-103055816D01*
X147740667Y-103265895D01*
X147740663Y-103265904D01*
X147647837Y-103490005D01*
X147585051Y-103724324D01*
X147553390Y-103964821D01*
X117382346Y-103964821D01*
X117398856Y-103776112D01*
X117398856Y-103776107D01*
X117379031Y-103549510D01*
X117379029Y-103549499D01*
X117320159Y-103329792D01*
X117320154Y-103329778D01*
X117224026Y-103123631D01*
X117224022Y-103123623D01*
X117172915Y-103050636D01*
X116493890Y-103729661D01*
X116493890Y-103723449D01*
X116466631Y-103621716D01*
X116413970Y-103530504D01*
X116339496Y-103456030D01*
X116248284Y-103403369D01*
X116146551Y-103376110D01*
X116140338Y-103376110D01*
X116819362Y-102697084D01*
X116746368Y-102645973D01*
X116540221Y-102549845D01*
X116540207Y-102549840D01*
X116320500Y-102490970D01*
X116320489Y-102490968D01*
X116093892Y-102471144D01*
X116093888Y-102471144D01*
X115867290Y-102490968D01*
X115867279Y-102490970D01*
X115647572Y-102549840D01*
X115647563Y-102549844D01*
X115441406Y-102645976D01*
X115441402Y-102645978D01*
X115368416Y-102697083D01*
X115368416Y-102697084D01*
X116047443Y-103376110D01*
X116041229Y-103376110D01*
X115939496Y-103403369D01*
X115848284Y-103456030D01*
X115773810Y-103530504D01*
X115721149Y-103621716D01*
X115693890Y-103723449D01*
X115693890Y-103729662D01*
X115014864Y-103050636D01*
X115014863Y-103050636D01*
X114963758Y-103123622D01*
X114963756Y-103123626D01*
X114867624Y-103329783D01*
X114867620Y-103329792D01*
X114808750Y-103549499D01*
X114808748Y-103549510D01*
X114788924Y-103776107D01*
X103571343Y-103776107D01*
X103567114Y-103765898D01*
X103445826Y-103555821D01*
X103298155Y-103363372D01*
X103298150Y-103363366D01*
X103126633Y-103191849D01*
X103126626Y-103191843D01*
X102934183Y-103044177D01*
X102934182Y-103044176D01*
X102934179Y-103044174D01*
X102724102Y-102922886D01*
X102724095Y-102922883D01*
X102499994Y-102830057D01*
X102265675Y-102767271D01*
X102025179Y-102735610D01*
X102025178Y-102735610D01*
X101782602Y-102735610D01*
X101782601Y-102735610D01*
X101542104Y-102767271D01*
X101307785Y-102830057D01*
X101083684Y-102922883D01*
X101083675Y-102922887D01*
X100873596Y-103044177D01*
X100681153Y-103191843D01*
X100681146Y-103191849D01*
X100509629Y-103363366D01*
X100509623Y-103363373D01*
X100361957Y-103555816D01*
X100240667Y-103765895D01*
X100240663Y-103765904D01*
X100147837Y-103990005D01*
X100085051Y-104224324D01*
X100053390Y-104464821D01*
X97544390Y-104464821D01*
X97544390Y-86350110D01*
X97564075Y-86283071D01*
X97616879Y-86237316D01*
X97668390Y-86226110D01*
X100603890Y-86226110D01*
X100603890Y-83705211D01*
X100735837Y-83726110D01*
X100971943Y-83726110D01*
X101103890Y-83705211D01*
X101103890Y-86226110D01*
X104401718Y-86226110D01*
X104401734Y-86226109D01*
X104461262Y-86219708D01*
X104461269Y-86219706D01*
X104595976Y-86169464D01*
X104595983Y-86169460D01*
X104711077Y-86083300D01*
X104711080Y-86083297D01*
X104797240Y-85968203D01*
X104797244Y-85968196D01*
X104847486Y-85833489D01*
X104847488Y-85833482D01*
X104853889Y-85773954D01*
X104853890Y-85773937D01*
X104853890Y-82476110D01*
X102332992Y-82476110D01*
X102353890Y-82344163D01*
X102353890Y-82108057D01*
X102332992Y-81976110D01*
X104853890Y-81976110D01*
X104853890Y-79495610D01*
X104873575Y-79428571D01*
X104926379Y-79382816D01*
X104977890Y-79371610D01*
X136116504Y-79371610D01*
X136183543Y-79391295D01*
G37*
%TD.AperFunction*%
%TA.AperFunction,Conductor*%
G36*
X175536929Y-79391295D02*
G01*
X175582684Y-79444099D01*
X175593890Y-79495610D01*
X175593890Y-81976110D01*
X178114788Y-81976110D01*
X178093890Y-82108057D01*
X178093890Y-82344163D01*
X178114788Y-82476110D01*
X175593890Y-82476110D01*
X175593890Y-85773954D01*
X175600291Y-85833482D01*
X175600293Y-85833489D01*
X175650535Y-85968196D01*
X175650539Y-85968203D01*
X175736699Y-86083297D01*
X175736702Y-86083300D01*
X175851796Y-86169460D01*
X175851803Y-86169464D01*
X175986510Y-86219706D01*
X175986517Y-86219708D01*
X176046045Y-86226109D01*
X176046062Y-86226110D01*
X179343890Y-86226110D01*
X179343890Y-83705211D01*
X179475837Y-83726110D01*
X179711943Y-83726110D01*
X179843890Y-83705211D01*
X179843890Y-86226110D01*
X182779390Y-86226110D01*
X182846429Y-86245795D01*
X182892184Y-86298599D01*
X182903390Y-86350110D01*
X182903390Y-122551610D01*
X182883705Y-122618649D01*
X182830901Y-122664404D01*
X182779390Y-122675610D01*
X176046019Y-122675610D01*
X176046013Y-122675611D01*
X175986406Y-122682018D01*
X175851561Y-122732312D01*
X175851554Y-122732316D01*
X175736345Y-122818562D01*
X175736342Y-122818565D01*
X175650096Y-122933774D01*
X175650092Y-122933781D01*
X175599798Y-123068627D01*
X175593391Y-123128226D01*
X175593391Y-123128233D01*
X175593390Y-123128245D01*
X175593390Y-125051610D01*
X175573705Y-125118649D01*
X175520901Y-125164404D01*
X175469390Y-125175610D01*
X137086779Y-125175610D01*
X137019740Y-125155925D01*
X136999098Y-125139291D01*
X136680709Y-124820902D01*
X136647224Y-124759579D01*
X136644390Y-124733221D01*
X136644390Y-120998999D01*
X136664075Y-120931960D01*
X136680709Y-120911318D01*
X137331318Y-120260709D01*
X137392641Y-120227224D01*
X137418999Y-120224390D01*
X138561570Y-120224390D01*
X138628609Y-120244075D01*
X138660838Y-120274081D01*
X138666344Y-120281436D01*
X138666347Y-120281438D01*
X138781554Y-120367683D01*
X138781561Y-120367687D01*
X138916407Y-120417981D01*
X138916406Y-120417981D01*
X138923334Y-120418725D01*
X138976017Y-120424390D01*
X141471762Y-120424389D01*
X141531373Y-120417981D01*
X141666221Y-120367686D01*
X141781436Y-120281436D01*
X141786942Y-120274081D01*
X141842875Y-120232209D01*
X141886210Y-120224390D01*
X163961570Y-120224390D01*
X164028609Y-120244075D01*
X164060838Y-120274081D01*
X164066344Y-120281436D01*
X164066347Y-120281438D01*
X164181554Y-120367683D01*
X164181561Y-120367687D01*
X164316407Y-120417981D01*
X164316406Y-120417981D01*
X164323334Y-120418725D01*
X164376017Y-120424390D01*
X166871762Y-120424389D01*
X166931373Y-120417981D01*
X167066221Y-120367686D01*
X167181436Y-120281436D01*
X167186942Y-120274081D01*
X167242875Y-120232209D01*
X167286210Y-120224390D01*
X168614207Y-120224390D01*
X168847478Y-120187443D01*
X169072102Y-120114458D01*
X169282544Y-120007233D01*
X169473620Y-119868407D01*
X171848407Y-117493620D01*
X171987233Y-117302544D01*
X172094458Y-117092103D01*
X172118172Y-117019118D01*
X172167443Y-116867478D01*
X172204390Y-116634207D01*
X172204390Y-103964821D01*
X176553390Y-103964821D01*
X176553390Y-104207398D01*
X176585051Y-104447895D01*
X176647837Y-104682214D01*
X176740663Y-104906315D01*
X176740666Y-104906322D01*
X176861954Y-105116399D01*
X176861956Y-105116402D01*
X176861957Y-105116403D01*
X177009623Y-105308846D01*
X177009629Y-105308853D01*
X177181146Y-105480370D01*
X177181152Y-105480375D01*
X177373601Y-105628046D01*
X177583678Y-105749334D01*
X177807790Y-105842164D01*
X178042101Y-105904948D01*
X178222476Y-105928694D01*
X178282601Y-105936610D01*
X178282602Y-105936610D01*
X178525179Y-105936610D01*
X178573278Y-105930277D01*
X178765679Y-105904948D01*
X178999990Y-105842164D01*
X179224102Y-105749334D01*
X179434179Y-105628046D01*
X179626628Y-105480375D01*
X179798155Y-105308848D01*
X179945826Y-105116399D01*
X180067114Y-104906322D01*
X180159944Y-104682210D01*
X180222728Y-104447899D01*
X180254390Y-104207398D01*
X180254390Y-103964822D01*
X180222728Y-103724321D01*
X180159944Y-103490010D01*
X180067114Y-103265898D01*
X179945826Y-103055821D01*
X179798155Y-102863372D01*
X179798150Y-102863366D01*
X179626633Y-102691849D01*
X179626626Y-102691843D01*
X179434183Y-102544177D01*
X179434182Y-102544176D01*
X179434179Y-102544174D01*
X179224102Y-102422886D01*
X179224095Y-102422883D01*
X178999994Y-102330057D01*
X178765675Y-102267271D01*
X178525179Y-102235610D01*
X178525178Y-102235610D01*
X178282602Y-102235610D01*
X178282601Y-102235610D01*
X178042104Y-102267271D01*
X177807785Y-102330057D01*
X177583684Y-102422883D01*
X177583675Y-102422887D01*
X177373596Y-102544177D01*
X177181153Y-102691843D01*
X177181146Y-102691849D01*
X177009629Y-102863366D01*
X177009623Y-102863373D01*
X176861957Y-103055816D01*
X176740667Y-103265895D01*
X176740663Y-103265904D01*
X176647837Y-103490005D01*
X176585051Y-103724324D01*
X176553390Y-103964821D01*
X172204390Y-103964821D01*
X172204390Y-92268012D01*
X172167443Y-92034741D01*
X172116783Y-91878828D01*
X172095962Y-91814749D01*
X172094902Y-91810990D01*
X172094458Y-91810118D01*
X172094458Y-91810117D01*
X171987233Y-91599676D01*
X171848407Y-91408600D01*
X169473620Y-89033813D01*
X169282544Y-88894987D01*
X169264468Y-88885777D01*
X169072106Y-88787763D01*
X168847478Y-88714776D01*
X168614207Y-88677830D01*
X168614202Y-88677830D01*
X167286210Y-88677830D01*
X167219171Y-88658145D01*
X167186942Y-88628139D01*
X167181438Y-88620787D01*
X167181436Y-88620784D01*
X167181432Y-88620781D01*
X167066225Y-88534536D01*
X167066218Y-88534532D01*
X166931372Y-88484238D01*
X166931373Y-88484238D01*
X166871773Y-88477831D01*
X166871771Y-88477830D01*
X166871763Y-88477830D01*
X166871755Y-88477830D01*
X165872791Y-88477830D01*
X165834473Y-88471761D01*
X165683040Y-88422557D01*
X165449767Y-88385610D01*
X165449762Y-88385610D01*
X149786779Y-88385610D01*
X149719740Y-88365925D01*
X149699098Y-88349291D01*
X144300709Y-82950902D01*
X144267224Y-82889579D01*
X144264390Y-82863221D01*
X144264390Y-80513012D01*
X144227443Y-80279741D01*
X144154456Y-80055113D01*
X144047232Y-79844676D01*
X144033889Y-79826311D01*
X143908407Y-79653600D01*
X143838098Y-79583291D01*
X143804613Y-79521968D01*
X143809597Y-79452276D01*
X143851469Y-79396343D01*
X143916933Y-79371926D01*
X143925779Y-79371610D01*
X175469890Y-79371610D01*
X175536929Y-79391295D01*
G37*
%TD.AperFunction*%
%TD*%
M02*
