M48
; DRILL file {KiCad 8.0.3} date 2025-06-30T13:48:01+0700
; FORMAT={-:-/ absolute / inch / decimal}
; #@! TF.CreationDate,2025-06-30T13:48:01+07:00
; #@! TF.GenerationSoftware,Kicad,Pcbnew,8.0.3
; #@! TF.FileFunction,Plated,1,2,PTH
FMAT,2
INCH
; #@! TA.AperFunction,Plated,PTH,ViaDrill
T1C0.0118
; #@! TA.AperFunction,Plated,PTH,ComponentDrill
T2C0.0315
; #@! TA.AperFunction,Plated,PTH,ComponentDrill
T3C0.0394
; #@! TA.AperFunction,Plated,PTH,ComponentDrill
T4C0.0433
; #@! TA.AperFunction,Plated,PTH,ComponentDrill
T5C0.0472
; #@! TA.AperFunction,Plated,PTH,ComponentDrill
T6C0.1181
%
G90
G05
T1
X4.1339Y-3.5236
X4.1339Y-3.7402
X4.1339Y-3.9961
X4.2126Y-4.6654
X4.4488Y-4.3898
X4.4488Y-4.6654
X5.0787Y-4.6654
X5.3543Y-3.9764
X5.5315Y-3.9764
X5.6693Y-3.9764
X6.5748Y-3.189
X6.5748Y-3.2677
X6.6535Y-3.189
X6.6535Y-3.2677
X7.0669Y-3.7795
X7.0669Y-4.3504
X7.0669Y-4.7638
T2
X4.5706Y-3.8888
X4.5706Y-4.0857
X5.0206Y-3.6872
X5.5206Y-3.6872
X5.8706Y-3.5388
X5.8706Y-3.7357
T3
X4.7206Y-4.5372
X4.8206Y-4.5372
T4
X5.4206Y-3.1745
X5.5206Y-3.1745
X5.6206Y-3.1745
T5
X4.5706Y-3.3404
X4.5706Y-3.5372
X5.5206Y-4.3789
X5.5206Y-4.6742
X6.5206Y-3.5503
X6.5206Y-3.8456
X6.5206Y-4.3789
X6.5206Y-4.6742
T6
X3.9706Y-3.2372
X3.9706Y-4.9872
X7.0706Y-3.2372
X7.0706Y-4.9872
M30
