%TF.GenerationSoftware,KiCad,Pcbnew,8.0.3*%
%TF.CreationDate,2025-06-30T13:47:58+07:00*%
%TF.ProjectId,linear supply,6c696e65-6172-4207-9375-70706c792e6b,rev?*%
%TF.SameCoordinates,Original*%
%TF.FileFunction,Copper,L2,Bot*%
%TF.FilePolarity,Positive*%
%FSLAX46Y46*%
G04 Gerber Fmt 4.6, Leading zero omitted, Abs format (unit mm)*
G04 Created by KiCad (PCBNEW 8.0.3) date 2025-06-30 13:47:58*
%MOMM*%
%LPD*%
G01*
G04 APERTURE LIST*
%TA.AperFunction,ComponentPad*%
%ADD10R,7.000000X7.000000*%
%TD*%
%TA.AperFunction,ComponentPad*%
%ADD11C,1.600000*%
%TD*%
%TA.AperFunction,ComponentPad*%
%ADD12R,1.905000X2.000000*%
%TD*%
%TA.AperFunction,ComponentPad*%
%ADD13O,1.905000X2.000000*%
%TD*%
%TA.AperFunction,ComponentPad*%
%ADD14R,2.400000X2.400000*%
%TD*%
%TA.AperFunction,ComponentPad*%
%ADD15C,2.400000*%
%TD*%
%TA.AperFunction,ComponentPad*%
%ADD16O,1.600000X1.600000*%
%TD*%
%TA.AperFunction,ComponentPad*%
%ADD17R,1.700000X1.700000*%
%TD*%
%TA.AperFunction,ComponentPad*%
%ADD18O,1.700000X1.700000*%
%TD*%
%TA.AperFunction,ViaPad*%
%ADD19C,0.600000*%
%TD*%
%TA.AperFunction,Conductor*%
%ADD20C,2.000000*%
%TD*%
G04 APERTURE END LIST*
D10*
%TO.P,,1*%
%TO.N,DC+*%
X179593890Y-126676110D03*
%TD*%
D11*
%TO.P,C2,1*%
%TO.N,out+*%
X116093890Y-98776110D03*
%TO.P,C2,2*%
%TO.N,DC-*%
X116093890Y-103776110D03*
%TD*%
D10*
%TO.P,input -,1*%
%TO.N,DC-*%
X179593890Y-82226110D03*
%TD*%
%TO.P,,1*%
%TO.N,out+*%
X100853890Y-126676110D03*
%TD*%
D11*
%TO.P,C4,1*%
%TO.N,DC+*%
X149113890Y-89886110D03*
%TO.P,C4,2*%
%TO.N,DC-*%
X149113890Y-94886110D03*
%TD*%
D12*
%TO.P,U1,1,ADJ*%
%TO.N,in pot*%
X137683890Y-80631110D03*
D13*
%TO.P,U1,2,VO*%
%TO.N,out+*%
X140223890Y-80631110D03*
%TO.P,U1,3,VI*%
%TO.N,DC+*%
X142763890Y-80631110D03*
%TD*%
D14*
%TO.P,C3,1*%
%TO.N,DC+*%
X165623890Y-118723890D03*
D15*
%TO.P,C3,2*%
%TO.N,DC-*%
X165623890Y-111223890D03*
%TD*%
D10*
%TO.P,,1*%
%TO.N,DC-*%
X100853890Y-82226110D03*
%TD*%
D11*
%TO.P,R1,1*%
%TO.N,out+*%
X140223890Y-93656110D03*
D16*
%TO.P,R1,2*%
%TO.N,in pot*%
X127523890Y-93656110D03*
%TD*%
D17*
%TO.P,Pot,1*%
%TO.N,in pot*%
X119903890Y-115246110D03*
D18*
%TO.P,Pot,2*%
%TO.N,DC-*%
X122443890Y-115246110D03*
%TD*%
D14*
%TO.P,C5,1*%
%TO.N,out+*%
X116093890Y-84846110D03*
D15*
%TO.P,C5,2*%
%TO.N,DC-*%
X116093890Y-89846110D03*
%TD*%
D14*
%TO.P,C1,1*%
%TO.N,DC+*%
X140223890Y-118723890D03*
D15*
%TO.P,C1,2*%
%TO.N,DC-*%
X140223890Y-111223890D03*
%TD*%
D14*
%TO.P,C6,1*%
%TO.N,DC+*%
X165623890Y-90178330D03*
D15*
%TO.P,C6,2*%
%TO.N,DC-*%
X165623890Y-97678330D03*
%TD*%
D19*
%TO.N,DC-*%
X179500000Y-110500000D03*
X107000000Y-118500000D03*
X169000000Y-81000000D03*
X105000000Y-89500000D03*
X129000000Y-118500000D03*
X167000000Y-83000000D03*
X179500000Y-96000000D03*
X140500000Y-101000000D03*
X113000000Y-118500000D03*
X144000000Y-101000000D03*
X105000000Y-95000000D03*
X105000000Y-101500000D03*
X113000000Y-111500000D03*
X167000000Y-81000000D03*
X169000000Y-83000000D03*
X136000000Y-101000000D03*
X179500000Y-121000000D03*
%TD*%
D20*
%TO.N,out+*%
X100853890Y-126676110D02*
X100853890Y-114016110D01*
X100853890Y-114016110D02*
X116093890Y-98776110D01*
%TO.N,DC-*%
X102123890Y-89846110D02*
X104653890Y-89846110D01*
X104653890Y-89846110D02*
X105000000Y-89500000D01*
X105346110Y-89846110D02*
X116093890Y-89846110D01*
X100853890Y-88576110D02*
X102123890Y-89846110D01*
X100853890Y-82226110D02*
X100853890Y-88576110D01*
X105000000Y-89500000D02*
X105346110Y-89846110D01*
%TO.N,in pot*%
X137358890Y-80956110D02*
X137683890Y-80631110D01*
X128793890Y-80956110D02*
X137358890Y-80956110D01*
X127523890Y-82226110D02*
X128793890Y-80956110D01*
X119903890Y-115246110D02*
X119903890Y-113976110D01*
X127523890Y-93656110D02*
X127523890Y-82226110D01*
X127523890Y-106356110D02*
X127523890Y-93656110D01*
X119903890Y-113976110D02*
X127523890Y-106356110D01*
%TD*%
%TA.AperFunction,Conductor*%
%TO.N,DC-*%
G36*
X128149052Y-79391295D02*
G01*
X128194807Y-79444099D01*
X128204751Y-79513257D01*
X128175726Y-79576813D01*
X128138308Y-79606095D01*
X128007455Y-79672767D01*
X127816378Y-79811594D01*
X126379375Y-81248597D01*
X126379375Y-81248598D01*
X126379373Y-81248600D01*
X126330292Y-81316153D01*
X126240546Y-81439676D01*
X126240356Y-81440052D01*
X126240307Y-81440148D01*
X126133323Y-81650113D01*
X126060336Y-81874741D01*
X126023390Y-82108012D01*
X126023390Y-105683221D01*
X126003705Y-105750260D01*
X125987071Y-105770902D01*
X118759375Y-112998597D01*
X118759374Y-112998598D01*
X118620549Y-113189672D01*
X118620548Y-113189674D01*
X118600166Y-113229677D01*
X118513323Y-113400113D01*
X118440336Y-113624741D01*
X118403390Y-113858012D01*
X118403390Y-115364207D01*
X118440337Y-115597479D01*
X118440337Y-115597482D01*
X118513320Y-115822098D01*
X118513320Y-115822099D01*
X118539875Y-115874216D01*
X118553390Y-115930509D01*
X118553390Y-116143979D01*
X118553391Y-116143986D01*
X118559798Y-116203593D01*
X118610092Y-116338438D01*
X118610096Y-116338445D01*
X118696342Y-116453654D01*
X118696345Y-116453657D01*
X118811554Y-116539903D01*
X118811561Y-116539907D01*
X118856508Y-116556671D01*
X118946407Y-116590201D01*
X119006017Y-116596610D01*
X119219488Y-116596609D01*
X119275783Y-116610124D01*
X119327898Y-116636678D01*
X119508949Y-116695505D01*
X119552521Y-116709663D01*
X119785793Y-116746610D01*
X119785798Y-116746610D01*
X120021987Y-116746610D01*
X120255258Y-116709663D01*
X120479882Y-116636678D01*
X120531997Y-116610124D01*
X120588291Y-116596609D01*
X120801761Y-116596609D01*
X120801762Y-116596609D01*
X120861373Y-116590201D01*
X120996221Y-116539906D01*
X121111436Y-116453656D01*
X121197686Y-116338441D01*
X121246892Y-116206511D01*
X121288762Y-116150578D01*
X121354227Y-116126160D01*
X121422500Y-116141011D01*
X121450755Y-116162163D01*
X121572807Y-116284215D01*
X121766311Y-116419710D01*
X121980397Y-116519539D01*
X121980406Y-116519543D01*
X122193890Y-116576744D01*
X122193890Y-115679122D01*
X122250897Y-115712035D01*
X122378064Y-115746110D01*
X122509716Y-115746110D01*
X122636883Y-115712035D01*
X122693890Y-115679122D01*
X122693890Y-116576743D01*
X122907373Y-116519543D01*
X122907382Y-116519539D01*
X123121468Y-116419710D01*
X123314972Y-116284215D01*
X123481995Y-116117192D01*
X123617490Y-115923688D01*
X123717319Y-115709602D01*
X123717322Y-115709596D01*
X123774526Y-115496110D01*
X122876902Y-115496110D01*
X122909815Y-115439103D01*
X122943890Y-115311936D01*
X122943890Y-115180284D01*
X122909815Y-115053117D01*
X122876902Y-114996110D01*
X123774526Y-114996110D01*
X123774525Y-114996109D01*
X123717322Y-114782623D01*
X123717319Y-114782617D01*
X123617490Y-114568532D01*
X123617489Y-114568530D01*
X123482003Y-114375036D01*
X123481998Y-114375030D01*
X123314972Y-114208004D01*
X123121468Y-114072509D01*
X122907382Y-113972680D01*
X122907376Y-113972677D01*
X122693890Y-113915474D01*
X122693890Y-114813098D01*
X122636883Y-114780185D01*
X122509716Y-114746110D01*
X122378064Y-114746110D01*
X122250897Y-114780185D01*
X122193890Y-114813098D01*
X122193890Y-113859498D01*
X122213575Y-113792459D01*
X122230204Y-113771822D01*
X124778141Y-111223885D01*
X138519123Y-111223885D01*
X138519123Y-111223894D01*
X138538163Y-111477969D01*
X138594858Y-111726367D01*
X138594863Y-111726384D01*
X138687948Y-111963561D01*
X138687947Y-111963561D01*
X138815344Y-112184217D01*
X138815351Y-112184228D01*
X138857342Y-112236881D01*
X138857343Y-112236882D01*
X139659277Y-111434948D01*
X139664779Y-111455481D01*
X139743771Y-111592298D01*
X139855482Y-111704009D01*
X139992299Y-111783001D01*
X140012830Y-111788502D01*
X139210703Y-112590628D01*
X139371506Y-112700261D01*
X139371514Y-112700266D01*
X139601066Y-112810811D01*
X139601064Y-112810811D01*
X139844542Y-112885914D01*
X139844548Y-112885916D01*
X140096485Y-112923889D01*
X140096494Y-112923890D01*
X140351286Y-112923890D01*
X140351294Y-112923889D01*
X140603231Y-112885916D01*
X140603237Y-112885914D01*
X140846714Y-112810811D01*
X141076266Y-112700266D01*
X141076267Y-112700265D01*
X141237075Y-112590628D01*
X140434950Y-111788502D01*
X140455481Y-111783001D01*
X140592298Y-111704009D01*
X140704009Y-111592298D01*
X140783001Y-111455481D01*
X140788502Y-111434949D01*
X141590435Y-112236882D01*
X141590436Y-112236881D01*
X141632434Y-112184220D01*
X141759831Y-111963561D01*
X141852916Y-111726384D01*
X141852921Y-111726367D01*
X141909616Y-111477969D01*
X141928657Y-111223894D01*
X141928657Y-111223885D01*
X163919123Y-111223885D01*
X163919123Y-111223894D01*
X163938163Y-111477969D01*
X163994858Y-111726367D01*
X163994863Y-111726384D01*
X164087948Y-111963561D01*
X164087947Y-111963561D01*
X164215344Y-112184217D01*
X164215351Y-112184228D01*
X164257342Y-112236881D01*
X164257343Y-112236882D01*
X165059277Y-111434948D01*
X165064779Y-111455481D01*
X165143771Y-111592298D01*
X165255482Y-111704009D01*
X165392299Y-111783001D01*
X165412830Y-111788502D01*
X164610703Y-112590628D01*
X164771506Y-112700261D01*
X164771514Y-112700266D01*
X165001066Y-112810811D01*
X165001064Y-112810811D01*
X165244542Y-112885914D01*
X165244548Y-112885916D01*
X165496485Y-112923889D01*
X165496494Y-112923890D01*
X165751286Y-112923890D01*
X165751294Y-112923889D01*
X166003231Y-112885916D01*
X166003237Y-112885914D01*
X166246714Y-112810811D01*
X166476266Y-112700266D01*
X166476267Y-112700265D01*
X166637075Y-112590628D01*
X165834950Y-111788502D01*
X165855481Y-111783001D01*
X165992298Y-111704009D01*
X166104009Y-111592298D01*
X166183001Y-111455481D01*
X166188502Y-111434949D01*
X166990434Y-112236882D01*
X166990436Y-112236881D01*
X167032434Y-112184220D01*
X167159831Y-111963561D01*
X167252916Y-111726384D01*
X167252921Y-111726367D01*
X167309616Y-111477969D01*
X167328657Y-111223894D01*
X167328657Y-111223885D01*
X167309616Y-110969810D01*
X167252921Y-110721412D01*
X167252916Y-110721395D01*
X167159831Y-110484218D01*
X167159832Y-110484218D01*
X167032435Y-110263562D01*
X166990435Y-110210896D01*
X166188502Y-111012829D01*
X166183001Y-110992299D01*
X166104009Y-110855482D01*
X165992298Y-110743771D01*
X165855481Y-110664779D01*
X165834949Y-110659277D01*
X166637075Y-109857150D01*
X166476274Y-109747518D01*
X166476266Y-109747513D01*
X166246713Y-109636968D01*
X166246715Y-109636968D01*
X166003237Y-109561865D01*
X166003231Y-109561863D01*
X165751294Y-109523890D01*
X165496485Y-109523890D01*
X165244548Y-109561863D01*
X165244542Y-109561865D01*
X165001065Y-109636968D01*
X164771512Y-109747515D01*
X164771499Y-109747522D01*
X164610703Y-109857149D01*
X165412831Y-110659277D01*
X165392299Y-110664779D01*
X165255482Y-110743771D01*
X165143771Y-110855482D01*
X165064779Y-110992299D01*
X165059277Y-111012830D01*
X164257342Y-110210896D01*
X164215347Y-110263557D01*
X164087948Y-110484218D01*
X163994863Y-110721395D01*
X163994858Y-110721412D01*
X163938163Y-110969810D01*
X163919123Y-111223885D01*
X141928657Y-111223885D01*
X141909616Y-110969810D01*
X141852921Y-110721412D01*
X141852916Y-110721395D01*
X141759831Y-110484218D01*
X141759832Y-110484218D01*
X141632435Y-110263562D01*
X141590435Y-110210896D01*
X140788502Y-111012829D01*
X140783001Y-110992299D01*
X140704009Y-110855482D01*
X140592298Y-110743771D01*
X140455481Y-110664779D01*
X140434949Y-110659277D01*
X141237075Y-109857150D01*
X141076274Y-109747518D01*
X141076266Y-109747513D01*
X140846713Y-109636968D01*
X140846715Y-109636968D01*
X140603237Y-109561865D01*
X140603231Y-109561863D01*
X140351294Y-109523890D01*
X140096485Y-109523890D01*
X139844548Y-109561863D01*
X139844542Y-109561865D01*
X139601065Y-109636968D01*
X139371512Y-109747515D01*
X139371499Y-109747522D01*
X139210703Y-109857149D01*
X140012831Y-110659277D01*
X139992299Y-110664779D01*
X139855482Y-110743771D01*
X139743771Y-110855482D01*
X139664779Y-110992299D01*
X139659277Y-111012830D01*
X138857342Y-110210896D01*
X138815347Y-110263557D01*
X138687948Y-110484218D01*
X138594863Y-110721395D01*
X138594858Y-110721412D01*
X138538163Y-110969810D01*
X138519123Y-111223885D01*
X124778141Y-111223885D01*
X128668407Y-107333620D01*
X128807233Y-107142544D01*
X128914458Y-106932102D01*
X128987443Y-106707478D01*
X129024390Y-106474207D01*
X129024390Y-103964821D01*
X147553390Y-103964821D01*
X147553390Y-104207398D01*
X147585051Y-104447895D01*
X147647837Y-104682214D01*
X147740663Y-104906315D01*
X147740666Y-104906322D01*
X147861954Y-105116399D01*
X147861956Y-105116402D01*
X147861957Y-105116403D01*
X148009623Y-105308846D01*
X148009629Y-105308853D01*
X148181146Y-105480370D01*
X148181152Y-105480375D01*
X148373601Y-105628046D01*
X148583678Y-105749334D01*
X148807790Y-105842164D01*
X149042101Y-105904948D01*
X149222476Y-105928694D01*
X149282601Y-105936610D01*
X149282602Y-105936610D01*
X149525179Y-105936610D01*
X149573278Y-105930277D01*
X149765679Y-105904948D01*
X149999990Y-105842164D01*
X150224102Y-105749334D01*
X150434179Y-105628046D01*
X150626628Y-105480375D01*
X150798155Y-105308848D01*
X150945826Y-105116399D01*
X151067114Y-104906322D01*
X151159944Y-104682210D01*
X151222728Y-104447899D01*
X151254390Y-104207398D01*
X151254390Y-103964822D01*
X151254390Y-103964821D01*
X176553390Y-103964821D01*
X176553390Y-104207398D01*
X176585051Y-104447895D01*
X176647837Y-104682214D01*
X176740663Y-104906315D01*
X176740666Y-104906322D01*
X176861954Y-105116399D01*
X176861956Y-105116402D01*
X176861957Y-105116403D01*
X177009623Y-105308846D01*
X177009629Y-105308853D01*
X177181146Y-105480370D01*
X177181152Y-105480375D01*
X177373601Y-105628046D01*
X177583678Y-105749334D01*
X177807790Y-105842164D01*
X178042101Y-105904948D01*
X178222476Y-105928694D01*
X178282601Y-105936610D01*
X178282602Y-105936610D01*
X178525179Y-105936610D01*
X178573278Y-105930277D01*
X178765679Y-105904948D01*
X178999990Y-105842164D01*
X179224102Y-105749334D01*
X179434179Y-105628046D01*
X179626628Y-105480375D01*
X179798155Y-105308848D01*
X179945826Y-105116399D01*
X180067114Y-104906322D01*
X180159944Y-104682210D01*
X180222728Y-104447899D01*
X180254390Y-104207398D01*
X180254390Y-103964822D01*
X180222728Y-103724321D01*
X180159944Y-103490010D01*
X180067114Y-103265898D01*
X179945826Y-103055821D01*
X179798155Y-102863372D01*
X179798150Y-102863366D01*
X179626633Y-102691849D01*
X179626626Y-102691843D01*
X179434183Y-102544177D01*
X179434182Y-102544176D01*
X179434179Y-102544174D01*
X179224102Y-102422886D01*
X179224095Y-102422883D01*
X178999994Y-102330057D01*
X178765675Y-102267271D01*
X178525179Y-102235610D01*
X178525178Y-102235610D01*
X178282602Y-102235610D01*
X178282601Y-102235610D01*
X178042104Y-102267271D01*
X177807785Y-102330057D01*
X177583684Y-102422883D01*
X177583675Y-102422887D01*
X177373596Y-102544177D01*
X177181153Y-102691843D01*
X177181146Y-102691849D01*
X177009629Y-102863366D01*
X177009623Y-102863373D01*
X176861957Y-103055816D01*
X176740667Y-103265895D01*
X176740663Y-103265904D01*
X176647837Y-103490005D01*
X176585051Y-103724324D01*
X176553390Y-103964821D01*
X151254390Y-103964821D01*
X151222728Y-103724321D01*
X151159944Y-103490010D01*
X151067114Y-103265898D01*
X150945826Y-103055821D01*
X150798155Y-102863372D01*
X150798150Y-102863366D01*
X150626633Y-102691849D01*
X150626626Y-102691843D01*
X150434183Y-102544177D01*
X150434182Y-102544176D01*
X150434179Y-102544174D01*
X150224102Y-102422886D01*
X150224095Y-102422883D01*
X149999994Y-102330057D01*
X149765675Y-102267271D01*
X149525179Y-102235610D01*
X149525178Y-102235610D01*
X149282602Y-102235610D01*
X149282601Y-102235610D01*
X149042104Y-102267271D01*
X148807785Y-102330057D01*
X148583684Y-102422883D01*
X148583675Y-102422887D01*
X148373596Y-102544177D01*
X148181153Y-102691843D01*
X148181146Y-102691849D01*
X148009629Y-102863366D01*
X148009623Y-102863373D01*
X147861957Y-103055816D01*
X147740667Y-103265895D01*
X147740663Y-103265904D01*
X147647837Y-103490005D01*
X147585051Y-103724324D01*
X147553390Y-103964821D01*
X129024390Y-103964821D01*
X129024390Y-97678325D01*
X163919123Y-97678325D01*
X163919123Y-97678334D01*
X163938163Y-97932409D01*
X163994858Y-98180807D01*
X163994863Y-98180824D01*
X164087948Y-98418001D01*
X164087947Y-98418001D01*
X164215344Y-98638657D01*
X164215351Y-98638668D01*
X164257342Y-98691321D01*
X164257343Y-98691322D01*
X165059277Y-97889388D01*
X165064779Y-97909921D01*
X165143771Y-98046738D01*
X165255482Y-98158449D01*
X165392299Y-98237441D01*
X165412830Y-98242942D01*
X164610703Y-99045068D01*
X164771506Y-99154701D01*
X164771514Y-99154706D01*
X165001066Y-99265251D01*
X165001064Y-99265251D01*
X165244542Y-99340354D01*
X165244548Y-99340356D01*
X165496485Y-99378329D01*
X165496494Y-99378330D01*
X165751286Y-99378330D01*
X165751294Y-99378329D01*
X166003231Y-99340356D01*
X166003237Y-99340354D01*
X166246714Y-99265251D01*
X166476266Y-99154706D01*
X166476267Y-99154705D01*
X166637075Y-99045068D01*
X165834950Y-98242942D01*
X165855481Y-98237441D01*
X165992298Y-98158449D01*
X166104009Y-98046738D01*
X166183001Y-97909921D01*
X166188502Y-97889389D01*
X166990434Y-98691322D01*
X166990436Y-98691321D01*
X167032434Y-98638660D01*
X167159831Y-98418001D01*
X167252916Y-98180824D01*
X167252921Y-98180807D01*
X167309616Y-97932409D01*
X167328657Y-97678334D01*
X167328657Y-97678325D01*
X167309616Y-97424250D01*
X167252921Y-97175852D01*
X167252916Y-97175835D01*
X167159831Y-96938658D01*
X167159832Y-96938658D01*
X167032435Y-96718002D01*
X166990435Y-96665336D01*
X166188502Y-97467269D01*
X166183001Y-97446739D01*
X166104009Y-97309922D01*
X165992298Y-97198211D01*
X165855481Y-97119219D01*
X165834949Y-97113717D01*
X166637075Y-96311590D01*
X166476274Y-96201958D01*
X166476266Y-96201953D01*
X166246713Y-96091408D01*
X166246715Y-96091408D01*
X166003237Y-96016305D01*
X166003231Y-96016303D01*
X165751294Y-95978330D01*
X165496485Y-95978330D01*
X165244548Y-96016303D01*
X165244542Y-96016305D01*
X165001065Y-96091408D01*
X164771512Y-96201955D01*
X164771499Y-96201962D01*
X164610703Y-96311589D01*
X165412831Y-97113717D01*
X165392299Y-97119219D01*
X165255482Y-97198211D01*
X165143771Y-97309922D01*
X165064779Y-97446739D01*
X165059277Y-97467270D01*
X164257342Y-96665336D01*
X164215347Y-96717997D01*
X164087948Y-96938658D01*
X163994863Y-97175835D01*
X163994858Y-97175852D01*
X163938163Y-97424250D01*
X163919123Y-97678325D01*
X129024390Y-97678325D01*
X129024390Y-93656108D01*
X138918422Y-93656108D01*
X138918422Y-93656111D01*
X138938254Y-93882796D01*
X138938256Y-93882807D01*
X138997148Y-94102598D01*
X138997151Y-94102607D01*
X139093321Y-94308842D01*
X139093322Y-94308844D01*
X139223844Y-94495251D01*
X139384748Y-94656155D01*
X139431583Y-94688949D01*
X139571156Y-94786678D01*
X139777394Y-94882849D01*
X139777399Y-94882850D01*
X139777401Y-94882851D01*
X139830305Y-94897026D01*
X139997198Y-94941745D01*
X140159120Y-94955911D01*
X140223888Y-94961578D01*
X140223890Y-94961578D01*
X140223892Y-94961578D01*
X140280563Y-94956619D01*
X140450582Y-94941745D01*
X140658227Y-94886107D01*
X147808924Y-94886107D01*
X147808924Y-94886112D01*
X147828748Y-95112709D01*
X147828750Y-95112720D01*
X147887620Y-95332427D01*
X147887625Y-95332441D01*
X147983753Y-95538588D01*
X148034864Y-95611582D01*
X148713890Y-94932556D01*
X148713890Y-94938771D01*
X148741149Y-95040504D01*
X148793810Y-95131716D01*
X148868284Y-95206190D01*
X148959496Y-95258851D01*
X149061229Y-95286110D01*
X149067443Y-95286110D01*
X148388416Y-95965135D01*
X148461403Y-96016242D01*
X148461411Y-96016246D01*
X148667558Y-96112374D01*
X148667572Y-96112379D01*
X148887279Y-96171249D01*
X148887290Y-96171251D01*
X149113888Y-96191076D01*
X149113892Y-96191076D01*
X149340489Y-96171251D01*
X149340500Y-96171249D01*
X149560207Y-96112379D01*
X149560221Y-96112374D01*
X149766368Y-96016246D01*
X149839361Y-95965134D01*
X149160337Y-95286110D01*
X149166551Y-95286110D01*
X149268284Y-95258851D01*
X149359496Y-95206190D01*
X149433970Y-95131716D01*
X149486631Y-95040504D01*
X149513890Y-94938771D01*
X149513890Y-94932557D01*
X150192914Y-95611581D01*
X150244026Y-95538588D01*
X150340154Y-95332441D01*
X150340159Y-95332427D01*
X150399029Y-95112720D01*
X150399031Y-95112709D01*
X150418856Y-94886112D01*
X150418856Y-94886107D01*
X150399031Y-94659510D01*
X150399029Y-94659499D01*
X150340159Y-94439792D01*
X150340154Y-94439778D01*
X150244026Y-94233631D01*
X150244022Y-94233623D01*
X150192915Y-94160636D01*
X149513890Y-94839661D01*
X149513890Y-94833449D01*
X149486631Y-94731716D01*
X149433970Y-94640504D01*
X149359496Y-94566030D01*
X149268284Y-94513369D01*
X149166551Y-94486110D01*
X149160338Y-94486110D01*
X149839362Y-93807084D01*
X149766368Y-93755973D01*
X149560221Y-93659845D01*
X149560207Y-93659840D01*
X149340500Y-93600970D01*
X149340489Y-93600968D01*
X149113892Y-93581144D01*
X149113888Y-93581144D01*
X148887290Y-93600968D01*
X148887279Y-93600970D01*
X148667572Y-93659840D01*
X148667563Y-93659844D01*
X148461406Y-93755976D01*
X148461402Y-93755978D01*
X148388416Y-93807083D01*
X148388416Y-93807084D01*
X149067443Y-94486110D01*
X149061229Y-94486110D01*
X148959496Y-94513369D01*
X148868284Y-94566030D01*
X148793810Y-94640504D01*
X148741149Y-94731716D01*
X148713890Y-94833449D01*
X148713890Y-94839662D01*
X148034864Y-94160636D01*
X148034863Y-94160636D01*
X147983758Y-94233622D01*
X147983756Y-94233626D01*
X147887624Y-94439783D01*
X147887620Y-94439792D01*
X147828750Y-94659499D01*
X147828748Y-94659510D01*
X147808924Y-94886107D01*
X140658227Y-94886107D01*
X140670386Y-94882849D01*
X140876624Y-94786678D01*
X141063029Y-94656157D01*
X141223937Y-94495249D01*
X141354458Y-94308844D01*
X141450629Y-94102606D01*
X141509525Y-93882802D01*
X141529358Y-93656110D01*
X141509525Y-93429418D01*
X141450629Y-93209614D01*
X141354458Y-93003376D01*
X141223937Y-92816971D01*
X141223935Y-92816968D01*
X141063031Y-92656064D01*
X140876624Y-92525542D01*
X140876622Y-92525541D01*
X140670387Y-92429371D01*
X140670378Y-92429368D01*
X140450587Y-92370476D01*
X140450583Y-92370475D01*
X140450582Y-92370475D01*
X140450581Y-92370474D01*
X140450576Y-92370474D01*
X140223892Y-92350642D01*
X140223888Y-92350642D01*
X139997203Y-92370474D01*
X139997192Y-92370476D01*
X139777401Y-92429368D01*
X139777392Y-92429371D01*
X139571157Y-92525541D01*
X139571155Y-92525542D01*
X139384748Y-92656064D01*
X139223844Y-92816968D01*
X139093322Y-93003375D01*
X139093321Y-93003377D01*
X138997151Y-93209612D01*
X138997148Y-93209621D01*
X138938256Y-93429412D01*
X138938254Y-93429423D01*
X138918422Y-93656108D01*
X129024390Y-93656108D01*
X129024390Y-89886108D01*
X147808422Y-89886108D01*
X147808422Y-89886111D01*
X147828254Y-90112796D01*
X147828256Y-90112807D01*
X147887148Y-90332598D01*
X147887151Y-90332607D01*
X147983321Y-90538842D01*
X147983322Y-90538844D01*
X148113844Y-90725251D01*
X148274748Y-90886155D01*
X148274751Y-90886157D01*
X148461156Y-91016678D01*
X148667394Y-91112849D01*
X148887198Y-91171745D01*
X149049120Y-91185911D01*
X149113888Y-91191578D01*
X149113890Y-91191578D01*
X149113892Y-91191578D01*
X149170563Y-91186619D01*
X149340582Y-91171745D01*
X149560386Y-91112849D01*
X149766624Y-91016678D01*
X149953029Y-90886157D01*
X150113937Y-90725249D01*
X150244458Y-90538844D01*
X150340629Y-90332606D01*
X150399525Y-90112802D01*
X150419358Y-89886110D01*
X150415858Y-89846110D01*
X150413691Y-89821340D01*
X150399525Y-89659418D01*
X150340629Y-89439614D01*
X150244458Y-89233376D01*
X150113937Y-89046971D01*
X150113935Y-89046968D01*
X149997432Y-88930465D01*
X163923390Y-88930465D01*
X163923390Y-91426200D01*
X163923391Y-91426206D01*
X163929798Y-91485813D01*
X163980092Y-91620658D01*
X163980096Y-91620665D01*
X164066342Y-91735874D01*
X164066345Y-91735877D01*
X164181554Y-91822123D01*
X164181561Y-91822127D01*
X164316407Y-91872421D01*
X164316406Y-91872421D01*
X164323334Y-91873165D01*
X164376017Y-91878830D01*
X166871762Y-91878829D01*
X166931373Y-91872421D01*
X167066221Y-91822126D01*
X167181436Y-91735876D01*
X167267686Y-91620661D01*
X167317981Y-91485813D01*
X167324390Y-91426203D01*
X167324389Y-88930458D01*
X167317981Y-88870847D01*
X167303908Y-88833116D01*
X167267687Y-88736001D01*
X167267683Y-88735994D01*
X167181437Y-88620785D01*
X167181434Y-88620782D01*
X167066225Y-88534536D01*
X167066218Y-88534532D01*
X166931372Y-88484238D01*
X166931373Y-88484238D01*
X166871773Y-88477831D01*
X166871771Y-88477830D01*
X166871763Y-88477830D01*
X166871754Y-88477830D01*
X164376019Y-88477830D01*
X164376013Y-88477831D01*
X164316406Y-88484238D01*
X164181561Y-88534532D01*
X164181554Y-88534536D01*
X164066345Y-88620782D01*
X164066342Y-88620785D01*
X163980096Y-88735994D01*
X163980092Y-88736001D01*
X163929798Y-88870847D01*
X163923391Y-88930446D01*
X163923391Y-88930453D01*
X163923390Y-88930465D01*
X149997432Y-88930465D01*
X149953031Y-88886064D01*
X149766624Y-88755542D01*
X149766622Y-88755541D01*
X149560387Y-88659371D01*
X149560378Y-88659368D01*
X149340587Y-88600476D01*
X149340583Y-88600475D01*
X149340582Y-88600475D01*
X149340581Y-88600474D01*
X149340576Y-88600474D01*
X149113892Y-88580642D01*
X149113888Y-88580642D01*
X148887203Y-88600474D01*
X148887192Y-88600476D01*
X148667401Y-88659368D01*
X148667392Y-88659371D01*
X148461157Y-88755541D01*
X148461155Y-88755542D01*
X148274748Y-88886064D01*
X148113844Y-89046968D01*
X147983322Y-89233375D01*
X147983321Y-89233377D01*
X147887151Y-89439612D01*
X147887148Y-89439621D01*
X147828256Y-89659412D01*
X147828254Y-89659423D01*
X147808422Y-89886108D01*
X129024390Y-89886108D01*
X129024390Y-82898999D01*
X129044075Y-82831960D01*
X129060709Y-82811318D01*
X129379098Y-82492929D01*
X129440421Y-82459444D01*
X129466779Y-82456610D01*
X137476987Y-82456610D01*
X137710258Y-82419663D01*
X137934882Y-82346678D01*
X138145324Y-82239453D01*
X138261162Y-82155291D01*
X138326968Y-82131811D01*
X138334048Y-82131609D01*
X138684261Y-82131609D01*
X138684262Y-82131609D01*
X138743873Y-82125201D01*
X138878721Y-82074906D01*
X138993936Y-81988656D01*
X139080186Y-81873441D01*
X139090580Y-81845570D01*
X139132450Y-81789637D01*
X139197913Y-81765218D01*
X139266187Y-81780068D01*
X139279636Y-81788575D01*
X139462352Y-81921327D01*
X139569870Y-81976110D01*
X139666134Y-82025159D01*
X139883641Y-82095831D01*
X139883642Y-82095831D01*
X139883645Y-82095832D01*
X140109536Y-82131610D01*
X140109537Y-82131610D01*
X140338243Y-82131610D01*
X140338244Y-82131610D01*
X140564135Y-82095832D01*
X140564138Y-82095831D01*
X140564139Y-82095831D01*
X140781645Y-82025159D01*
X140781645Y-82025158D01*
X140781648Y-82025158D01*
X140985428Y-81921327D01*
X141170456Y-81786896D01*
X141332176Y-81625176D01*
X141393573Y-81540669D01*
X141448902Y-81498006D01*
X141518515Y-81492027D01*
X141580310Y-81524633D01*
X141594204Y-81540666D01*
X141655604Y-81625176D01*
X141817324Y-81786896D01*
X142002352Y-81921327D01*
X142109870Y-81976110D01*
X142206134Y-82025159D01*
X142423641Y-82095831D01*
X142423642Y-82095831D01*
X142423645Y-82095832D01*
X142649536Y-82131610D01*
X142649537Y-82131610D01*
X142878243Y-82131610D01*
X142878244Y-82131610D01*
X143104135Y-82095832D01*
X143104138Y-82095831D01*
X143104139Y-82095831D01*
X143321645Y-82025159D01*
X143321645Y-82025158D01*
X143321648Y-82025158D01*
X143525428Y-81921327D01*
X143710456Y-81786896D01*
X143872176Y-81625176D01*
X144006607Y-81440148D01*
X144110438Y-81236368D01*
X144110439Y-81236365D01*
X144181111Y-81018859D01*
X144181111Y-81018858D01*
X144181112Y-81018855D01*
X144216890Y-80792964D01*
X144216890Y-80469256D01*
X144181112Y-80243365D01*
X144181111Y-80243361D01*
X144181111Y-80243360D01*
X144110439Y-80025854D01*
X144110438Y-80025852D01*
X144006607Y-79822072D01*
X143872176Y-79637044D01*
X143818423Y-79583291D01*
X143784938Y-79521968D01*
X143789922Y-79452276D01*
X143831794Y-79396343D01*
X143897258Y-79371926D01*
X143906104Y-79371610D01*
X175469890Y-79371610D01*
X175536929Y-79391295D01*
X175582684Y-79444099D01*
X175593890Y-79495610D01*
X175593890Y-81976110D01*
X178114788Y-81976110D01*
X178093890Y-82108057D01*
X178093890Y-82344163D01*
X178114788Y-82476110D01*
X175593890Y-82476110D01*
X175593890Y-85773954D01*
X175600291Y-85833482D01*
X175600293Y-85833489D01*
X175650535Y-85968196D01*
X175650539Y-85968203D01*
X175736699Y-86083297D01*
X175736702Y-86083300D01*
X175851796Y-86169460D01*
X175851803Y-86169464D01*
X175986510Y-86219706D01*
X175986517Y-86219708D01*
X176046045Y-86226109D01*
X176046062Y-86226110D01*
X179343890Y-86226110D01*
X179343890Y-83705211D01*
X179475837Y-83726110D01*
X179711943Y-83726110D01*
X179843890Y-83705211D01*
X179843890Y-86226110D01*
X182779390Y-86226110D01*
X182846429Y-86245795D01*
X182892184Y-86298599D01*
X182903390Y-86350110D01*
X182903390Y-122551610D01*
X182883705Y-122618649D01*
X182830901Y-122664404D01*
X182779390Y-122675610D01*
X176046019Y-122675610D01*
X176046013Y-122675611D01*
X175986406Y-122682018D01*
X175851561Y-122732312D01*
X175851554Y-122732316D01*
X175736345Y-122818562D01*
X175736342Y-122818565D01*
X175650096Y-122933774D01*
X175650092Y-122933781D01*
X175599798Y-123068627D01*
X175593391Y-123128226D01*
X175593391Y-123128233D01*
X175593390Y-123128245D01*
X175593391Y-129046610D01*
X175573706Y-129113649D01*
X175520902Y-129159404D01*
X175469391Y-129170610D01*
X104978390Y-129170610D01*
X104911351Y-129150925D01*
X104865596Y-129098121D01*
X104854390Y-129046610D01*
X104854389Y-123128239D01*
X104854388Y-123128233D01*
X104854387Y-123128226D01*
X104847981Y-123068627D01*
X104797686Y-122933779D01*
X104797685Y-122933778D01*
X104797683Y-122933774D01*
X104711437Y-122818565D01*
X104711434Y-122818562D01*
X104596225Y-122732316D01*
X104596218Y-122732312D01*
X104461372Y-122682018D01*
X104461373Y-122682018D01*
X104401773Y-122675611D01*
X104401771Y-122675610D01*
X104401763Y-122675610D01*
X104401755Y-122675610D01*
X102478390Y-122675610D01*
X102411351Y-122655925D01*
X102365596Y-122603121D01*
X102354390Y-122551610D01*
X102354390Y-117476025D01*
X138523390Y-117476025D01*
X138523390Y-119971760D01*
X138523391Y-119971766D01*
X138529798Y-120031373D01*
X138580092Y-120166218D01*
X138580096Y-120166225D01*
X138666342Y-120281434D01*
X138666345Y-120281437D01*
X138781554Y-120367683D01*
X138781561Y-120367687D01*
X138916407Y-120417981D01*
X138916406Y-120417981D01*
X138923334Y-120418725D01*
X138976017Y-120424390D01*
X141471762Y-120424389D01*
X141531373Y-120417981D01*
X141666221Y-120367686D01*
X141781436Y-120281436D01*
X141867686Y-120166221D01*
X141917981Y-120031373D01*
X141924390Y-119971763D01*
X141924389Y-117476025D01*
X163923390Y-117476025D01*
X163923390Y-119971760D01*
X163923391Y-119971766D01*
X163929798Y-120031373D01*
X163980092Y-120166218D01*
X163980096Y-120166225D01*
X164066342Y-120281434D01*
X164066345Y-120281437D01*
X164181554Y-120367683D01*
X164181561Y-120367687D01*
X164316407Y-120417981D01*
X164316406Y-120417981D01*
X164323334Y-120418725D01*
X164376017Y-120424390D01*
X166871762Y-120424389D01*
X166931373Y-120417981D01*
X167066221Y-120367686D01*
X167181436Y-120281436D01*
X167267686Y-120166221D01*
X167317981Y-120031373D01*
X167324390Y-119971763D01*
X167324389Y-117476018D01*
X167317981Y-117416407D01*
X167267686Y-117281559D01*
X167267685Y-117281558D01*
X167267683Y-117281554D01*
X167181437Y-117166345D01*
X167181434Y-117166342D01*
X167066225Y-117080096D01*
X167066218Y-117080092D01*
X166931372Y-117029798D01*
X166931373Y-117029798D01*
X166871773Y-117023391D01*
X166871771Y-117023390D01*
X166871763Y-117023390D01*
X166871754Y-117023390D01*
X164376019Y-117023390D01*
X164376013Y-117023391D01*
X164316406Y-117029798D01*
X164181561Y-117080092D01*
X164181554Y-117080096D01*
X164066345Y-117166342D01*
X164066342Y-117166345D01*
X163980096Y-117281554D01*
X163980092Y-117281561D01*
X163929798Y-117416407D01*
X163923391Y-117476006D01*
X163923391Y-117476013D01*
X163923390Y-117476025D01*
X141924389Y-117476025D01*
X141924389Y-117476018D01*
X141917981Y-117416407D01*
X141867686Y-117281559D01*
X141867685Y-117281558D01*
X141867683Y-117281554D01*
X141781437Y-117166345D01*
X141781434Y-117166342D01*
X141666225Y-117080096D01*
X141666218Y-117080092D01*
X141531372Y-117029798D01*
X141531373Y-117029798D01*
X141471773Y-117023391D01*
X141471771Y-117023390D01*
X141471763Y-117023390D01*
X141471754Y-117023390D01*
X138976019Y-117023390D01*
X138976013Y-117023391D01*
X138916406Y-117029798D01*
X138781561Y-117080092D01*
X138781554Y-117080096D01*
X138666345Y-117166342D01*
X138666342Y-117166345D01*
X138580096Y-117281554D01*
X138580092Y-117281561D01*
X138529798Y-117416407D01*
X138523391Y-117476006D01*
X138523391Y-117476013D01*
X138523390Y-117476025D01*
X102354390Y-117476025D01*
X102354390Y-114688999D01*
X102374075Y-114621960D01*
X102390709Y-114601318D01*
X109658407Y-107333620D01*
X113215920Y-103776107D01*
X114788924Y-103776107D01*
X114788924Y-103776112D01*
X114808748Y-104002709D01*
X114808750Y-104002720D01*
X114867620Y-104222427D01*
X114867625Y-104222441D01*
X114963753Y-104428588D01*
X115014864Y-104501582D01*
X115693890Y-103822556D01*
X115693890Y-103828771D01*
X115721149Y-103930504D01*
X115773810Y-104021716D01*
X115848284Y-104096190D01*
X115939496Y-104148851D01*
X116041229Y-104176110D01*
X116047443Y-104176110D01*
X115368416Y-104855135D01*
X115441403Y-104906242D01*
X115441411Y-104906246D01*
X115647558Y-105002374D01*
X115647572Y-105002379D01*
X115867279Y-105061249D01*
X115867290Y-105061251D01*
X116093888Y-105081076D01*
X116093892Y-105081076D01*
X116320489Y-105061251D01*
X116320500Y-105061249D01*
X116540207Y-105002379D01*
X116540221Y-105002374D01*
X116746368Y-104906246D01*
X116819361Y-104855134D01*
X116140337Y-104176110D01*
X116146551Y-104176110D01*
X116248284Y-104148851D01*
X116339496Y-104096190D01*
X116413970Y-104021716D01*
X116466631Y-103930504D01*
X116493890Y-103828771D01*
X116493890Y-103822557D01*
X117172914Y-104501581D01*
X117224026Y-104428588D01*
X117320154Y-104222441D01*
X117320159Y-104222427D01*
X117379029Y-104002720D01*
X117379031Y-104002709D01*
X117398856Y-103776112D01*
X117398856Y-103776107D01*
X117379031Y-103549510D01*
X117379029Y-103549499D01*
X117320159Y-103329792D01*
X117320154Y-103329778D01*
X117224026Y-103123631D01*
X117224022Y-103123623D01*
X117172915Y-103050636D01*
X116493890Y-103729661D01*
X116493890Y-103723449D01*
X116466631Y-103621716D01*
X116413970Y-103530504D01*
X116339496Y-103456030D01*
X116248284Y-103403369D01*
X116146551Y-103376110D01*
X116140338Y-103376110D01*
X116819362Y-102697084D01*
X116746368Y-102645973D01*
X116540221Y-102549845D01*
X116540207Y-102549840D01*
X116320500Y-102490970D01*
X116320489Y-102490968D01*
X116093892Y-102471144D01*
X116093888Y-102471144D01*
X115867290Y-102490968D01*
X115867279Y-102490970D01*
X115647572Y-102549840D01*
X115647563Y-102549844D01*
X115441406Y-102645976D01*
X115441402Y-102645978D01*
X115368416Y-102697083D01*
X115368416Y-102697084D01*
X116047443Y-103376110D01*
X116041229Y-103376110D01*
X115939496Y-103403369D01*
X115848284Y-103456030D01*
X115773810Y-103530504D01*
X115721149Y-103621716D01*
X115693890Y-103723449D01*
X115693890Y-103729662D01*
X115014864Y-103050636D01*
X115014863Y-103050636D01*
X114963758Y-103123622D01*
X114963756Y-103123626D01*
X114867624Y-103329783D01*
X114867620Y-103329792D01*
X114808750Y-103549499D01*
X114808748Y-103549510D01*
X114788924Y-103776107D01*
X113215920Y-103776107D01*
X117238408Y-99753620D01*
X117377233Y-99562543D01*
X117484458Y-99352102D01*
X117557443Y-99127478D01*
X117594390Y-98894207D01*
X117594390Y-98658012D01*
X117557443Y-98424744D01*
X117557443Y-98424741D01*
X117484458Y-98200118D01*
X117377233Y-97989676D01*
X117238408Y-97798600D01*
X117071400Y-97631592D01*
X116880324Y-97492767D01*
X116669884Y-97385543D01*
X116669883Y-97385542D01*
X116669882Y-97385542D01*
X116445259Y-97312557D01*
X116445257Y-97312556D01*
X116445255Y-97312556D01*
X116211987Y-97275610D01*
X116211982Y-97275610D01*
X115975798Y-97275610D01*
X115975793Y-97275610D01*
X115742521Y-97312556D01*
X115517893Y-97385543D01*
X115307453Y-97492769D01*
X115116386Y-97631586D01*
X115116381Y-97631590D01*
X99709375Y-113038597D01*
X99709374Y-113038598D01*
X99570547Y-113229675D01*
X99483703Y-113400118D01*
X99463323Y-113440113D01*
X99390336Y-113664741D01*
X99353390Y-113898012D01*
X99353390Y-122551610D01*
X99333705Y-122618649D01*
X99280901Y-122664404D01*
X99229390Y-122675610D01*
X97668390Y-122675610D01*
X97601351Y-122655925D01*
X97555596Y-122603121D01*
X97544390Y-122551610D01*
X97544390Y-104464821D01*
X100053390Y-104464821D01*
X100053390Y-104707398D01*
X100085051Y-104947895D01*
X100147837Y-105182214D01*
X100200290Y-105308846D01*
X100240666Y-105406322D01*
X100361954Y-105616399D01*
X100361956Y-105616402D01*
X100361957Y-105616403D01*
X100509623Y-105808846D01*
X100509629Y-105808853D01*
X100681146Y-105980370D01*
X100681152Y-105980375D01*
X100873601Y-106128046D01*
X101083678Y-106249334D01*
X101307790Y-106342164D01*
X101542101Y-106404948D01*
X101722476Y-106428694D01*
X101782601Y-106436610D01*
X101782602Y-106436610D01*
X102025179Y-106436610D01*
X102073278Y-106430277D01*
X102265679Y-106404948D01*
X102499990Y-106342164D01*
X102724102Y-106249334D01*
X102934179Y-106128046D01*
X103126628Y-105980375D01*
X103298155Y-105808848D01*
X103445826Y-105616399D01*
X103567114Y-105406322D01*
X103659944Y-105182210D01*
X103722728Y-104947899D01*
X103754390Y-104707398D01*
X103754390Y-104464822D01*
X103722728Y-104224321D01*
X103659944Y-103990010D01*
X103567114Y-103765898D01*
X103445826Y-103555821D01*
X103298155Y-103363372D01*
X103298150Y-103363366D01*
X103126633Y-103191849D01*
X103126626Y-103191843D01*
X102934183Y-103044177D01*
X102934182Y-103044176D01*
X102934179Y-103044174D01*
X102724102Y-102922886D01*
X102724095Y-102922883D01*
X102499994Y-102830057D01*
X102265675Y-102767271D01*
X102025179Y-102735610D01*
X102025178Y-102735610D01*
X101782602Y-102735610D01*
X101782601Y-102735610D01*
X101542104Y-102767271D01*
X101307785Y-102830057D01*
X101083684Y-102922883D01*
X101083675Y-102922887D01*
X100873596Y-103044177D01*
X100681153Y-103191843D01*
X100681146Y-103191849D01*
X100509629Y-103363366D01*
X100509623Y-103363373D01*
X100361957Y-103555816D01*
X100240667Y-103765895D01*
X100240663Y-103765904D01*
X100147837Y-103990005D01*
X100085051Y-104224324D01*
X100053390Y-104464821D01*
X97544390Y-104464821D01*
X97544390Y-89846105D01*
X114389123Y-89846105D01*
X114389123Y-89846114D01*
X114408163Y-90100189D01*
X114464858Y-90348587D01*
X114464863Y-90348604D01*
X114557948Y-90585781D01*
X114557947Y-90585781D01*
X114685344Y-90806437D01*
X114685351Y-90806448D01*
X114727342Y-90859101D01*
X114727343Y-90859102D01*
X115529277Y-90057168D01*
X115534779Y-90077701D01*
X115613771Y-90214518D01*
X115725482Y-90326229D01*
X115862299Y-90405221D01*
X115882830Y-90410722D01*
X115080703Y-91212848D01*
X115241506Y-91322481D01*
X115241514Y-91322486D01*
X115471066Y-91433031D01*
X115471064Y-91433031D01*
X115714542Y-91508134D01*
X115714548Y-91508136D01*
X115966485Y-91546109D01*
X115966494Y-91546110D01*
X116221286Y-91546110D01*
X116221294Y-91546109D01*
X116473231Y-91508136D01*
X116473237Y-91508134D01*
X116716714Y-91433031D01*
X116946266Y-91322486D01*
X116946267Y-91322485D01*
X117107075Y-91212848D01*
X116304950Y-90410722D01*
X116325481Y-90405221D01*
X116462298Y-90326229D01*
X116574009Y-90214518D01*
X116653001Y-90077701D01*
X116658502Y-90057169D01*
X117460435Y-90859102D01*
X117460436Y-90859101D01*
X117502434Y-90806440D01*
X117629831Y-90585781D01*
X117722916Y-90348604D01*
X117722921Y-90348587D01*
X117779616Y-90100189D01*
X117798657Y-89846114D01*
X117798657Y-89846105D01*
X117779616Y-89592030D01*
X117722921Y-89343632D01*
X117722916Y-89343615D01*
X117629831Y-89106438D01*
X117629832Y-89106438D01*
X117502435Y-88885782D01*
X117460435Y-88833116D01*
X116658502Y-89635049D01*
X116653001Y-89614519D01*
X116574009Y-89477702D01*
X116462298Y-89365991D01*
X116325481Y-89286999D01*
X116304949Y-89281497D01*
X117107075Y-88479370D01*
X116946274Y-88369738D01*
X116946266Y-88369733D01*
X116716713Y-88259188D01*
X116716715Y-88259188D01*
X116473237Y-88184085D01*
X116473231Y-88184083D01*
X116221294Y-88146110D01*
X115966485Y-88146110D01*
X115714548Y-88184083D01*
X115714542Y-88184085D01*
X115471065Y-88259188D01*
X115241512Y-88369735D01*
X115241499Y-88369742D01*
X115080703Y-88479369D01*
X115882831Y-89281497D01*
X115862299Y-89286999D01*
X115725482Y-89365991D01*
X115613771Y-89477702D01*
X115534779Y-89614519D01*
X115529277Y-89635051D01*
X114727342Y-88833116D01*
X114685347Y-88885777D01*
X114557948Y-89106438D01*
X114464863Y-89343615D01*
X114464858Y-89343632D01*
X114408163Y-89592030D01*
X114389123Y-89846105D01*
X97544390Y-89846105D01*
X97544390Y-86350110D01*
X97564075Y-86283071D01*
X97616879Y-86237316D01*
X97668390Y-86226110D01*
X100603890Y-86226110D01*
X100603890Y-83705211D01*
X100735837Y-83726110D01*
X100971943Y-83726110D01*
X101103890Y-83705211D01*
X101103890Y-86226110D01*
X104401718Y-86226110D01*
X104401734Y-86226109D01*
X104461262Y-86219708D01*
X104461269Y-86219706D01*
X104595976Y-86169464D01*
X104595983Y-86169460D01*
X104711077Y-86083300D01*
X104711080Y-86083297D01*
X104797240Y-85968203D01*
X104797244Y-85968196D01*
X104847486Y-85833489D01*
X104847488Y-85833482D01*
X104853889Y-85773954D01*
X104853890Y-85773937D01*
X104853890Y-83598245D01*
X114393390Y-83598245D01*
X114393390Y-86093980D01*
X114393391Y-86093986D01*
X114399798Y-86153593D01*
X114450092Y-86288438D01*
X114450096Y-86288445D01*
X114536342Y-86403654D01*
X114536345Y-86403657D01*
X114651554Y-86489903D01*
X114651561Y-86489907D01*
X114786407Y-86540201D01*
X114786406Y-86540201D01*
X114793334Y-86540945D01*
X114846017Y-86546610D01*
X117341762Y-86546609D01*
X117401373Y-86540201D01*
X117536221Y-86489906D01*
X117651436Y-86403656D01*
X117737686Y-86288441D01*
X117787981Y-86153593D01*
X117794390Y-86093983D01*
X117794389Y-83598238D01*
X117787981Y-83538627D01*
X117776940Y-83509025D01*
X117737687Y-83403781D01*
X117737683Y-83403774D01*
X117651437Y-83288565D01*
X117651434Y-83288562D01*
X117536225Y-83202316D01*
X117536218Y-83202312D01*
X117401372Y-83152018D01*
X117401373Y-83152018D01*
X117341773Y-83145611D01*
X117341771Y-83145610D01*
X117341763Y-83145610D01*
X117341754Y-83145610D01*
X114846019Y-83145610D01*
X114846013Y-83145611D01*
X114786406Y-83152018D01*
X114651561Y-83202312D01*
X114651554Y-83202316D01*
X114536345Y-83288562D01*
X114536342Y-83288565D01*
X114450096Y-83403774D01*
X114450092Y-83403781D01*
X114399798Y-83538627D01*
X114393391Y-83598226D01*
X114393391Y-83598233D01*
X114393390Y-83598245D01*
X104853890Y-83598245D01*
X104853890Y-82476110D01*
X102332992Y-82476110D01*
X102353890Y-82344163D01*
X102353890Y-82108057D01*
X102332992Y-81976110D01*
X104853890Y-81976110D01*
X104853890Y-79495610D01*
X104873575Y-79428571D01*
X104926379Y-79382816D01*
X104977890Y-79371610D01*
X128082013Y-79371610D01*
X128149052Y-79391295D01*
G37*
%TD.AperFunction*%
%TD*%
M02*
